<svg width="63" height="70" viewBox="0 0 63 70" fill="none" xmlns="http://www.w3.org/2000/svg">
<path d="M24.0404 0.423843L23.576 0.847672V3.91017V6.97268H14.186C3.80901 6.97268 4.18636 6.94533 3.48972 7.834C3.19946 8.21681 3.18495 8.40822 3.14141 14.1641L3.09787 20.0977H2.22707C1.44336 20.0977 1.29823 20.1387 0.920883 20.4942L0.5 20.8906V23.3379C0.5 25.4434 0.54354 25.8125 0.761238 26.0586C1.13858 26.4961 1.55947 26.6602 2.37221 26.6602H3.11238V32.334V38.0078H2.37221C1.55947 38.0078 1.13858 38.1719 0.761238 38.6094C0.54354 38.8555 0.5 39.2246 0.5 41.3301V43.7774L0.920883 44.1738C1.29823 44.5293 1.44336 44.5703 2.22707 44.5703H3.11238V50.2441V55.918H2.4738C1.67557 55.918 1.19663 56.082 0.804778 56.4785C0.514513 56.7656 0.5 56.9434 0.5 59.2676V61.7422L0.920883 62.125C1.25469 62.4258 1.51593 62.5215 2.22707 62.5762L3.11238 62.6582V65.5293C3.11238 68.1133 3.14141 68.4688 3.40264 68.9746C3.56229 69.2754 3.88158 69.6309 4.11379 69.7676C4.50565 69.9863 6.21821 70 31.747 70H58.9447L59.3366 69.7129C60.1058 69.1523 60.1493 68.8926 60.1493 65.625V62.6172H60.8024C61.7023 62.6172 62.3989 62.3164 62.6746 61.8105C62.9794 61.2773 63.0084 57.2715 62.7182 56.7383C62.4715 56.2734 61.6732 55.918 60.846 55.918H60.1493V50.2441V44.5703H61.0637C62.0215 44.5703 62.4279 44.3789 62.7472 43.791C62.8488 43.6133 62.9069 42.6289 62.9069 41.2207V38.9375L62.4134 38.4727C61.9635 38.0488 61.8474 38.0078 61.0347 38.0078H60.1493V32.334V26.6602H61.0347C61.8474 26.6602 61.9635 26.6192 62.4134 26.1953L62.9069 25.7305V23.4473C62.9069 22.0391 62.8488 21.0547 62.7472 20.877C62.4279 20.2891 62.0215 20.0977 61.0637 20.0977H60.1493V14.2051C60.1493 7.60158 60.1784 7.75197 59.1044 7.23244C58.5964 6.98635 58.1465 6.97268 50.8754 6.97268C46.3618 6.97268 43.0383 7.02736 42.8206 7.10939C42.2836 7.3008 42.0949 7.71095 42.2981 8.28517C42.3852 8.54494 42.5883 8.81837 42.7335 8.88673C42.9076 8.96877 45.8103 9.02345 50.4835 9.02345H57.9724V14.5606V20.0977H57.0435H56.1147L56.0566 17.7324C55.9841 14.2188 56.1872 14.3555 50.9044 14.3555C46.8697 14.3555 46.7101 14.3828 46.1586 15.0801C45.8828 15.4356 45.8538 15.6817 45.8103 17.7871L45.7522 20.0977L45.0846 20.1113C44.0252 20.1113 43.4301 20.3711 43.1398 20.918C42.9221 21.3008 42.8786 21.7656 42.8786 23.3242C42.8786 24.3906 42.9512 25.4434 43.0383 25.6758C43.3575 26.5508 43.1689 26.5234 50.9334 26.5234H57.9724V32.334V38.1445H57.0435H56.1147L56.0566 35.7656C55.9841 32.1973 56.1002 32.2793 50.9334 32.2793C45.7667 32.2793 45.8828 32.1973 45.8103 35.7656L45.7522 38.1445H44.7798C43.7204 38.1445 43.2995 38.3633 43.0092 39.0606C42.7915 39.6211 42.8496 43.1348 43.0963 43.6953C43.4737 44.5703 43.5027 44.5703 51.1511 44.5703H57.9724V50.3125V56.0547H57.029H56.0856V54.0176C56.0856 51.5703 56.0276 51.2285 55.4761 50.709L55.0407 50.3125H50.9334H46.8262L46.3908 50.709C45.8683 51.2148 45.7813 51.6387 45.7813 54.0859V56.0273L44.7653 56.082C43.8945 56.1231 43.6913 56.1914 43.343 56.5059L42.9512 56.875V59.2676V61.6602L43.3575 62.0293L43.7494 62.4121L50.8609 62.4531L57.9724 62.4941V65.2148V67.9492H48.829H39.6857V62.8359V57.709L39.3084 57.4356C38.8004 57.0664 38.4521 57.0801 38.0167 57.4902L37.6539 57.8184V62.8906V67.9492H31.7034H25.753V42.1914C25.753 24.2266 25.7095 16.3242 25.5934 16.0235C25.2886 15.2031 24.0404 15.2031 23.7357 16.0235C23.6196 16.3242 23.576 24.1445 23.576 42.1914V67.9492H14.4327H5.28936L5.31839 65.2422L5.36193 62.5488L12.4008 62.4805C19.759 62.4121 19.8897 62.3984 20.238 61.7969C20.4267 61.4551 20.4267 57.0801 20.238 56.7246C19.9913 56.3008 19.3091 56.0547 18.3658 56.0547H17.495L17.4514 53.5801L17.4079 51.1055L16.929 50.709L16.4645 50.3125H12.4008H8.33714L7.87272 50.709L7.39378 51.1055L7.35024 53.5938L7.3067 56.0684L6.33432 56.0273L5.36193 55.9863L5.31839 50.2852L5.28936 44.5703H12.0235C15.7244 44.5703 18.9463 44.5293 19.2075 44.4883C19.4543 44.4336 19.8171 44.2422 20.0203 44.0508C20.3831 43.709 20.3831 43.6953 20.3831 41.3301V38.9375L19.9622 38.541C19.5704 38.1719 19.4543 38.1445 18.5109 38.1445H17.4805V35.8203C17.4805 33.2637 17.3934 32.8945 16.6677 32.5391C16.1017 32.252 8.71448 32.2383 8.14847 32.5254C7.45183 32.8809 7.32121 33.3867 7.32121 35.875V38.1582L6.34883 38.1172L5.36193 38.0762V32.334V26.5918L12.5169 26.5234L19.6865 26.4551L20.0348 26.0723C20.3686 25.7031 20.3831 25.6211 20.3831 23.3242C20.3831 20.9727 20.3831 20.959 20.0203 20.6172C19.6284 20.2344 19.106 20.0977 18.1191 20.0977H17.4805V17.8418C17.4805 14.2598 17.6256 14.3555 12.4008 14.3555C9.54174 14.3555 8.65643 14.3965 8.25006 14.5606C7.45183 14.875 7.32121 15.3399 7.32121 17.9102V20.0977H6.30529H5.28936L5.31839 14.5879L5.36193 9.09181L14.4762 9.0508L23.576 9.02345V10.6504C23.576 11.5801 23.6486 12.4414 23.7357 12.6328C24.0985 13.3711 25.2305 13.3711 25.5934 12.6192C25.695 12.4004 25.753 10.6367 25.753 7.17775V2.0508H31.7034H37.6539V28.2324C37.6539 54.2363 37.6539 54.4141 37.9441 54.6875C38.1183 54.8516 38.423 54.9609 38.7423 54.9609C39.7292 54.9609 39.6567 57.1348 39.7002 27.6856C39.7292 6.98635 39.7002 0.957047 39.5696 0.724625C39.1342 -0.013649 39.3229 1.52588e-05 31.6309 1.52588e-05H24.5049L24.0404 0.423843ZM15.4196 18.211L15.4631 20.0977H12.4008H9.35307V18.2793C9.35307 17.2676 9.39661 16.4063 9.45466 16.3516C9.51271 16.3106 10.8624 16.2832 12.4589 16.2969L15.3761 16.3379L15.4196 18.211ZM53.9087 18.1836V20.0977H50.9334H47.9582V18.1836V16.2695H50.9334H53.9087V18.1836ZM18.3513 23.3789V24.6094H10.5141H2.67698V23.3789V22.1484H10.5141H18.3513V23.3789ZM60.7299 23.3789V24.6094L52.8637 24.582L44.983 24.541L44.9395 23.5293C44.9105 22.9688 44.925 22.4356 44.9685 22.3262C45.0266 22.1758 46.4634 22.1484 52.8927 22.1484H60.7299V23.3789ZM15.4196 36.1895L15.3761 38.0762H12.4008H9.42563L9.38209 36.1895L9.33855 34.3164H12.4008H15.4631L15.4196 36.1895ZM53.9087 36.2305V38.1445H50.9334H47.9582V36.2305V34.3164H50.9334H53.9087V36.2305ZM18.3513 41.2891V42.5195H10.5141H2.67698V41.2891V40.0586H10.5141H18.3513V41.2891ZM60.7299 41.2891V42.5195H52.8202H44.9105V41.3848C44.9105 40.7559 44.954 40.1953 45.0121 40.1543C45.0556 40.0996 48.6258 40.0586 52.9218 40.0586H60.7299V41.2891ZM15.4486 54.1406V56.0547H12.4008H9.35307V54.1406V52.2266H12.4008H15.4486V54.1406ZM53.9087 54.1406V56.0547H50.9334H47.9582V54.1406V52.2266H50.9334H53.9087V54.1406ZM18.3513 59.2676V60.5664H10.5141H2.67698V59.2676V57.9688H10.5141H18.3513V59.2676ZM60.7008 59.2266L60.6573 60.498H52.8202H44.983L44.9395 59.418C44.9105 58.8164 44.925 58.2559 44.9685 58.1465C45.0266 57.9961 46.4779 57.9688 52.8927 57.9688H60.7444L60.7008 59.2266Z" fill="#B7B899"/>
<path d="M28.5105 11.6211C28.2347 11.8809 28.2202 12.0723 28.2202 16.3379V20.7949L28.583 21.123C28.9314 21.4648 28.9604 21.4648 31.7034 21.4648C34.2577 21.4648 34.4754 21.4512 34.7512 21.1914C34.9108 21.041 35.0705 20.7813 35.114 20.6172C35.1575 20.4395 35.1866 18.416 35.1575 16.1191C35.114 12.2227 35.0995 11.9082 34.8382 11.6348C34.577 11.3613 34.4174 11.3477 31.6744 11.3477C28.9894 11.3477 28.7862 11.3613 28.5105 11.6211ZM33.0096 16.4063V19.5645L31.6744 19.5234L30.3246 19.4824L30.2811 16.3652L30.2521 13.2617H31.6308H33.0096V16.4063Z" fill="#B7B899"/>
<path d="M28.8443 30.2149C28.6701 30.2833 28.4669 30.461 28.3799 30.6114C28.2783 30.7891 28.2202 32.4161 28.2202 35.2462C28.2202 39.3477 28.2347 39.6348 28.496 39.9356C28.7717 40.2501 28.8443 40.2637 31.297 40.3047C34.2432 40.3594 34.7947 40.2637 35.0269 39.6212C35.2446 39.0606 35.2446 31.3633 35.0414 30.8028C34.9543 30.5704 34.7221 30.3243 34.519 30.2286C34.0836 30.0508 29.3232 30.0372 28.8443 30.2149ZM33.0096 35.2051V38.2813H31.6308H30.2521V35.2051V32.129H31.6308H33.0096V35.2051Z" fill="#B7B899"/>
<path d="M28.583 49.2871L28.2202 49.6152V54.0723C28.2202 58.3379 28.2347 58.5293 28.5105 58.7891C28.7862 59.0488 28.9894 59.0625 31.6744 59.0625C34.4174 59.0625 34.577 59.0488 34.8382 58.7754C35.0995 58.502 35.114 58.2148 35.114 53.9766V49.4648L34.7657 49.2051C34.4609 48.9727 34.1706 48.9453 31.6744 48.9453C28.9604 48.9453 28.9314 48.9453 28.583 49.2871ZM33.0096 54.0039V57.1484H31.6308H30.2521V54.0996C30.2521 52.418 30.2956 50.9961 30.3537 50.9551C30.3972 50.9004 31.0213 50.8594 31.7324 50.8594H33.0096V54.0039Z" fill="#B7B899"/>
<path d="M2.677 23.3789V24.4727H10.4416H18.2061V23.3789V22.2852H10.4416H2.677V23.3789Z" fill="#3E3E3E"/>
<path d="M45.0555 23.3789V24.4727H52.8201H60.5847V23.3789V22.2852H52.8201H45.0555V23.3789Z" fill="#3E3E3E"/>
<path d="M2.677 41.3574V42.5195H10.4416H18.2061V41.3574V40.1953H10.4416H2.677V41.3574Z" fill="#3E3E3E"/>
<path d="M45.0555 41.3574V42.5195H52.8201H60.5847V41.3574V40.1953H52.8201H45.0555V41.3574Z" fill="#3E3E3E"/>
<path d="M2.677 59.2676V60.4297H10.4416H18.2061V59.2676V58.1055H10.4416H2.677V59.2676Z" fill="#3E3E3E"/>
<path d="M45.0555 59.2676V60.4297H52.8201H60.5847V59.2676V58.1055H52.8201H45.0555V59.2676Z" fill="#3E3E3E"/>
</svg>
