<svg width="71" height="70" viewBox="0 0 71 70" fill="none" xmlns="http://www.w3.org/2000/svg">
<path d="M34.0234 0.192169C33.5449 0.301781 32.793 0.589508 32.3555 0.836128C31.3027 1.42529 0.964844 26.7589 0.705078 27.2658C0.595703 27.4713 0.5 27.9783 0.5 28.3756C0.5 29.7046 1.33398 30.5404 2.66016 30.5404C3.05664 30.5404 3.52148 30.4719 3.68555 30.376C4.0957 30.1705 6.33789 28.2934 6.85742 27.7454C7.08984 27.4987 13.3652 22.2101 20.8164 15.9897C29.7715 8.50882 34.543 4.61767 34.8711 4.50806C35.5273 4.30254 36.1426 4.41216 36.8262 4.89169C37.127 5.09721 42.8555 9.83784 49.5684 15.4417L61.75 25.6354V44.8171C61.75 66.054 61.8184 64.5743 60.875 65.2457C60.4512 65.5471 60.4102 65.5471 54.5449 65.5882L48.625 65.6293V53.6681C48.625 46.8723 48.5566 41.2685 48.4883 40.6793C48.1191 37.8295 45.7949 35.4729 42.9512 35.0618C42.4316 34.9933 39.0684 34.9248 35.5 34.9248C31.9316 34.9248 28.582 34.9933 28.0488 35.0618C25.2051 35.4729 22.8809 37.8295 22.5117 40.6793C22.4434 41.2685 22.375 46.8723 22.375 53.6681V65.6293L16.4688 65.5882C10.5898 65.5471 10.5488 65.5471 10.125 65.2457C9.19531 64.588 9.25 65.4238 9.25 50.5853C9.25 42.8852 9.19531 36.9526 9.11328 36.6375C8.92188 35.788 8.11523 35.1166 7.1582 34.9933C6.25586 34.8837 5.68164 35.1303 5.17578 35.8839L4.875 36.336L4.90234 50.7361L4.94336 65.1361L5.43555 66.1637C6.29688 67.9448 7.5957 69.1231 9.35938 69.7123C10.1934 70 10.3301 70 35.5 70C60.752 70 60.8066 70 61.6406 69.7123C63.6777 69.0272 65.3184 67.342 65.9199 65.3005C66.0977 64.6976 66.125 62.2725 66.125 47.0915C66.125 37.4595 66.1523 29.5813 66.1934 29.5813C66.2344 29.5813 66.5352 29.8006 66.8906 30.0609C67.4375 30.4856 67.6152 30.5404 68.2852 30.5404C69.6797 30.5404 70.5 29.732 70.5 28.3756C70.5 27.9783 70.418 27.485 70.3086 27.2795C70.1992 27.074 67.4922 24.7174 64.293 22.0457L58.4688 17.1817V13.0713C58.4688 9.22129 58.4551 8.93356 58.1953 8.50882C57.7852 7.85117 57.1699 7.52234 56.2812 7.52234C55.3926 7.52234 54.7773 7.85117 54.3672 8.50882C54.1211 8.90616 54.0938 9.20759 54.0938 11.1943C54.0938 12.4274 54.0391 13.4139 53.9844 13.3865C53.916 13.3591 50.6211 10.6325 46.6699 7.31681C42.7051 4.00111 39.1094 1.08275 38.6582 0.836128C37.8105 0.370285 36.3477 -0.0133514 35.4316 0.000350952C35.1309 0.000350952 34.502 0.0962601 34.0234 0.192169ZM43.375 39.6791C44.291 40.3368 44.25 39.6243 44.25 53.2708V65.6156H35.5H26.75L26.7773 53.1064L26.8184 40.6108L27.1191 40.1861C27.7617 39.2818 27.543 39.3092 35.6367 39.3503L42.9512 39.3777L43.375 39.6791Z" fill="#B7B899"/>
<path d="M39.5607 39.7477C39.7931 40.1724 39.8068 41.0356 39.8478 52.9145L39.8751 65.6156H42.0626H44.2501V53.5859C44.2501 45.4885 44.1954 41.3918 44.0997 41.0493C43.8947 40.3094 43.2111 39.5969 42.5411 39.4462C42.2404 39.3777 41.3927 39.3092 40.6544 39.3092H39.3146L39.5607 39.7477Z" fill="#8A909A"/>
<path d="M28.2949 39.4599C27.707 39.6243 27.0645 40.3094 26.8867 40.926C26.8047 41.2548 26.75 45.6529 26.75 53.5174V65.6156H33.3125H39.875L39.8477 52.9145C39.8066 41.0356 39.793 40.1724 39.5605 39.7477L39.3145 39.3092L34.0234 39.3229C31.1113 39.3229 28.541 39.3914 28.2949 39.4599ZM34.4199 50.5853C35.8691 51.5581 35.8691 53.3667 34.4199 54.3395C33.0801 55.2438 31.125 54.134 31.125 52.4624C31.125 51.2704 32.123 50.2702 33.3125 50.2702C33.75 50.2702 34.1055 50.3661 34.4199 50.5853Z" fill="#3E3E3E"/>
</svg>
