<svg width="71" height="70" viewBox="0 0 71 70" fill="none" xmlns="http://www.w3.org/2000/svg">
<path d="M0.791667 0.334785C0.536458 0.63913 0.5 4.18478 0.5 35C0.5 65.8152 0.536458 69.3609 0.791667 69.6652L1.0651 70H35.5H69.9349L70.2083 69.6652C70.4635 69.3609 70.5 66.4696 70.5 41.8174C70.5 14.5022 70.5 14.3043 70.1354 14C69.7708 13.6957 69.5339 13.6957 56.099 13.6957H42.4271V9.75435V5.81304L43.8125 5.75217C45.7083 5.67609 45.7083 5.69131 45.7083 2.81522C45.7083 0.776093 45.6719 0.471741 45.3802 0.258698C45.0703 0.0152206 43.2656 0 23.0495 0H1.0651L0.791667 0.334785ZM43.7031 2.81522V3.95652H24.9635C8.30208 3.95652 6.1875 3.98696 5.82292 4.2L5.42188 4.42826V36.3848V68.3261H3.96354H2.50521V35V1.67391H23.1042H43.7031V2.81522ZM40.4219 9.73913V13.6957H33.5859C26.987 13.6957 26.7318 13.7109 26.3854 14C26.0573 14.2739 26.0208 14.5022 26.0208 16.587C26.0208 19.4935 26.0208 19.4783 28.3906 19.4783H30.0312V30.2826V41.087H28.3177C25.9479 41.087 26.0208 41.0109 26.0208 43.7957C26.0208 46.7478 26.0026 46.7174 28.3177 46.7174H30.0312V57.5217V68.3261H18.7292H7.42708V37.0543V5.78261H23.9245H40.4219V9.73913ZM68.4948 41.8478V68.3261H67.0365H65.5781V43.2478C65.5781 23.9522 65.5234 18.1239 65.3594 17.987C65.1953 17.85 60.8021 17.8043 46.6745 17.8043H28.2083V16.587V15.3696H48.3516H68.4948V41.8478ZM63.5729 30.2826V41.087H47.8047H32.0365V30.2826V19.4783H47.8047H63.5729V30.2826ZM63.5729 43.9022V45.0435H45.8906H28.2083V43.9022V42.7609H45.8906H63.5729V43.9022ZM45.7083 57.5217V68.3261H43.7031H41.6979V60.5957C41.6979 54.7826 41.6432 52.8196 41.4792 52.6826C41.3151 52.5457 39.9844 52.5 36.6484 52.5H32.0365V49.6087V46.7174H38.8724H45.7083V57.5217ZM48.8073 57.5217V68.3261H48.2604H47.7135V57.5217V46.7174H48.2604H48.8073V57.5217ZM63.5729 57.5217V68.3261H57.1927H50.8125V57.5217V46.7174H57.1927H63.5729V57.5217ZM39.6927 61.25V68.3261H35.8646H32.0365V61.25V54.1739H35.8646H39.6927V61.25Z" fill="#B7B899"/>
<path d="M9.28644 7.33487C9.12238 7.47182 9.06769 10.5305 9.06769 20.1783V32.8544L9.46873 33.0827C9.81508 33.2805 10.5443 33.3262 13.8073 33.3262C17.0703 33.3262 17.7995 33.2805 18.1458 33.0827L18.5469 32.8544V20.3001C18.5469 11.9305 18.4922 7.63921 18.3646 7.44139C18.1823 7.16747 17.9271 7.15226 13.8437 7.15226C10.7083 7.15226 9.4505 7.19791 9.28644 7.33487ZM16.6875 20.1936L16.7239 31.6523H13.8073H10.8906V20.1631V8.65878L13.7708 8.70443L16.6328 8.75008L16.6875 20.1936Z" fill="#B7B899"/>
<path d="M9.35935 36.1565C9.10415 36.3695 9.06769 37.7391 9.06769 49C9.06769 60.2608 9.10415 61.6304 9.35935 61.8434C9.59633 62.0565 10.2526 62.0869 13.789 62.0869C17.5807 62.0869 17.9635 62.0565 18.237 61.813C18.5286 61.5543 18.5469 60.4434 18.5469 48.9543C18.5469 37.7391 18.5104 36.3695 18.2552 36.1565C18.0182 35.9434 17.3437 35.913 13.8073 35.913C10.2708 35.913 9.59633 35.9434 9.35935 36.1565ZM16.6328 49V60.4891H13.8073H10.9818L10.9271 49.1521C10.9088 42.913 10.9271 37.7239 10.9818 37.6173C11.0364 37.4652 11.7291 37.4347 13.8437 37.4652L16.6328 37.5108V49Z" fill="#B7B899"/>
<path d="M46.1094 21.8522L45.7083 22.0805V30.7392C45.7083 38.4088 45.7448 39.4131 46 39.6262C46.237 39.8392 47.112 39.8696 52.7083 39.8696C58.7057 39.8696 59.1614 39.8544 59.4349 39.5957C59.7083 39.337 59.7448 38.5001 59.7448 30.7696C59.7448 22.4153 59.7448 22.2175 59.3802 21.9131C59.0338 21.624 58.7786 21.6088 52.763 21.6088C47.4036 21.6088 46.4557 21.6392 46.1094 21.8522ZM57.7396 30.7392V38.1957H52.7265H47.7135V30.7392V23.2827H52.7265H57.7396V30.7392Z" fill="#B7B899"/>
<path d="M50.776 26.4326C50.4844 26.7217 48.9896 29.9934 48.9896 30.3434C48.9896 30.9065 50.3568 31.2717 50.7943 30.8456C51.1406 30.4804 52.4531 27.4065 52.4531 26.9347C52.4531 26.2195 51.3411 25.9 50.776 26.4326Z" fill="#B7B899"/>
<path d="M53.6745 26.4326C53.2916 26.8131 50.0833 33.9957 50.0833 34.5131C50.0833 34.7566 50.1745 35.0153 50.3021 35.1218C50.6302 35.3957 51.4505 35.35 51.7604 35.0305C52.1068 34.6957 55.3698 27.4066 55.3698 26.9805C55.3698 26.2653 54.2578 25.9153 53.6745 26.4326Z" fill="#B7B899"/>
<path d="M37.3594 59.8957C36.612 60.3218 37.0677 61.3262 38.0157 61.3262C38.3985 61.3262 38.9636 60.8088 38.9636 60.4588C38.9636 60.2001 38.3073 59.6523 37.9974 59.6523C37.8698 59.6523 37.5782 59.7588 37.3594 59.8957Z" fill="#B7B899"/>
<path d="M11.0729 19.4783V30.8914H13.8073H16.5416V19.4783V8.06527H13.8073H11.0729V19.4783Z" fill="#3E3E3E"/>
<path d="M11.0729 48.2392V59.6522H13.8073H16.5416V48.2392V36.8261H13.8073H11.0729V48.2392Z" fill="#3E3E3E"/>
</svg>
