<svg width="71" height="70" viewBox="0 0 71 70" fill="none" xmlns="http://www.w3.org/2000/svg">
<g clip-path="url(#clip0_4_715)">
<path d="M35.3086 0.355469L34.9531 0.724609V12.4414V24.1582L35.3086 24.5273L35.6777 24.8828H43.5117H51.3594V27.6172V30.3516H36.2383C21.8828 30.3516 21.1172 30.3379 21.2129 30.1055C21.6094 29.1758 21.6914 28.5332 21.6914 26.5234V24.377L22.7578 23.8438C24.3027 23.0645 26.0801 21.2734 26.8594 19.6875C27.543 18.2793 27.8438 17.0898 27.8438 15.709C27.8438 14.7656 27.8164 14.6289 27.4883 14.3008L27.1191 13.9453H24.0293C21.8555 13.9453 20.7207 14 20.2148 14.1367L19.5039 14.3145L19.4219 13.959C18.7656 10.9922 17.3848 8.35352 15.416 6.31641C14.8965 5.79688 14.7871 5.74219 14.1719 5.74219C13.543 5.74219 13.4336 5.79688 12.9277 6.31641C10.9863 8.32617 9.53711 11.0742 8.92188 13.959L8.83984 14.3145L8.12891 14.1367C7.62305 14 6.48828 13.9453 4.31445 13.9453H1.22461L0.855469 14.3008C0.527344 14.6289 0.5 14.7656 0.5 15.709C0.5 17.0898 0.800781 18.2793 1.48438 19.6875C2.26367 21.2734 4.04102 23.0645 5.59961 23.8438L6.65234 24.377V26.5234C6.65234 28.5332 6.73438 29.1758 7.13086 30.1055C7.22656 30.3379 7.03516 30.3516 4.21875 30.3516H1.22461L0.855469 30.707L0.5 31.0762V50.1758V69.2754L0.855469 69.6445C1.14258 69.9316 1.34766 70 1.86719 70C2.38672 70 2.5918 69.9316 2.87891 69.6445C3.2207 69.2891 3.23438 69.2344 3.23438 67.5938V65.8984H14.1719H25.1094V67.5938C25.1094 69.2344 25.123 69.2891 25.4648 69.6445C25.9844 70.1504 26.9688 70.1504 27.4883 69.6445L27.8438 69.2754V55.2891V41.2891H47.8047H67.7656V55.2891V69.2754L68.1211 69.6445C68.4082 69.9316 68.6133 70 69.1328 70C69.6523 70 69.8574 69.9316 70.1445 69.6445L70.5 69.2754V50.1758V31.0762L70.1445 30.707L69.7754 30.3516H61.9414H54.0938V27.6172V24.8828H61.9414H69.7754L70.1445 24.5273L70.5 24.1582V12.4414V0.724609L70.1445 0.355469L69.7754 0H64.0059H58.2363L57.8535 0.369141C57.5391 0.697266 57.498 0.833984 57.5527 1.35352C57.5938 1.75 57.7305 2.06445 57.9766 2.31055L58.332 2.66602L63.0488 2.70703L67.7656 2.74805V12.4414V22.1484H52.7266H37.6875V12.4414V2.74805L42.4043 2.70703L47.1211 2.66602L47.4766 2.31055C47.7227 2.06445 47.8594 1.75 47.9004 1.35352C47.9551 0.833984 47.9141 0.697266 47.5996 0.369141L47.2168 0H41.4473H35.6777L35.3086 0.355469ZM14.8145 10.0078C15.7852 11.457 16.5781 13.4941 16.8105 15.1895C16.8789 15.6406 16.8242 15.7227 16.0312 16.4336C15.5664 16.8574 14.9785 17.5 14.7188 17.8828C14.459 18.2793 14.2129 18.5801 14.1719 18.5801C14.1309 18.5801 13.8848 18.2793 13.625 17.8828C13.3652 17.5 12.7773 16.8574 12.3125 16.4336C11.5195 15.7227 11.4648 15.6406 11.5332 15.1895C11.6562 14.2734 12.1211 12.7012 12.5312 11.7852C12.9277 10.9102 14.0215 9.16016 14.1719 9.16016C14.2129 9.16016 14.5 9.54297 14.8145 10.0078ZM7.69141 16.8711C9.52344 17.3633 11.2461 18.7578 12.0527 20.4395C12.3125 20.959 12.5586 21.5605 12.6133 21.7656L12.6953 22.1484H10.877C9.76953 22.1484 8.77148 22.0664 8.34766 21.957C7.28125 21.6699 6.03711 20.9453 5.23047 20.1523C4.49219 19.4141 3.61719 17.9238 3.43945 17.1172L3.34375 16.6797H5.17578C6.26953 16.6797 7.26758 16.7617 7.69141 16.8711ZM24.9043 17.1172C24.7402 17.9102 23.8652 19.4004 23.1406 20.1387C22.3613 20.9316 21.0762 21.6699 19.9961 21.957C19.5723 22.0664 18.5742 22.1484 17.4668 22.1484H15.6484L15.7305 21.7656C15.7852 21.5605 16.0312 20.959 16.291 20.4395C17.084 18.7852 18.8066 17.3633 20.584 16.8711C20.9395 16.7754 22.0469 16.6934 23.0996 16.6934L25 16.6797L24.9043 17.1172ZM18.957 26.5234C18.957 28.4102 18.8613 28.8066 18.2188 29.5039C17.5352 30.2695 17.1387 30.3516 14.1719 30.3516C11.2461 30.3516 10.9863 30.2969 10.2344 29.6133C9.53711 28.998 9.38672 28.4512 9.38672 26.6055V24.8828L13.9395 24.8418C16.4277 24.8281 18.5879 24.8008 18.7246 24.7734C18.9297 24.7461 18.957 24.9102 18.957 26.5234ZM67.7656 35.8203V38.5547H35.5H3.23438V35.8203V33.0859H35.5H67.7656V35.8203ZM25.1094 46.0742V50.8594H14.1719H3.23438V46.0742V41.2891H14.1719H25.1094V46.0742ZM25.1094 58.3789V63.1641H14.1719H3.23438V58.3789V53.5938H14.1719H25.1094V58.3789Z" fill="#B7B899"/>
<path d="M13.2696 45.1719C12.627 45.8145 12.6407 46.3477 13.2833 46.9902C13.7071 47.4141 13.8301 47.4688 14.2676 47.4004C14.9102 47.291 15.3887 46.8125 15.4981 46.1699C15.5665 45.7324 15.5118 45.6094 15.0879 45.1856C14.4454 44.543 13.9122 44.5293 13.2696 45.1719Z" fill="#B7B899"/>
<path d="M13.2696 57.4766C12.627 58.1191 12.6407 58.6523 13.2833 59.2949C13.7071 59.7188 13.8301 59.7734 14.2676 59.7051C14.9102 59.5957 15.3887 59.1172 15.4981 58.4746C15.5665 58.0371 15.5118 57.9141 15.0879 57.4902C14.4454 56.8477 13.9122 56.834 13.2696 57.4766Z" fill="#B7B899"/>
<path d="M51.7148 0.355474C51.1679 0.916021 51.2089 1.6543 51.8378 2.28321C52.2617 2.70704 52.3847 2.76172 52.8222 2.69336C53.5195 2.57032 53.9707 2.07813 54.0527 1.35352C54.1074 0.83399 54.0664 0.697271 53.7519 0.369146C53.2187 -0.150385 52.2343 -0.164057 51.7148 0.355474Z" fill="#B7B899"/>
<path d="M13.6797 9.93945C12.6953 11.4434 11.998 13.1387 11.7109 14.7246L11.5605 15.5859L12.5723 16.5703C13.1328 17.1172 13.7207 17.7461 13.8711 17.9785L14.1719 18.3887L14.4727 17.9785C14.623 17.7461 15.2109 17.1172 15.7715 16.5703L16.7832 15.5859L16.6328 14.7246C16.4277 13.6309 16.0449 12.4824 15.5117 11.4297C15.0469 10.5137 14.2812 9.29688 14.1719 9.29688C14.1309 9.29688 13.9121 9.58398 13.6797 9.93945Z" fill="white"/>
<path d="M3.5625 17.1035C3.71289 17.9102 4.4375 19.1953 5.13477 19.9336C6.61133 21.4648 7.96484 21.998 10.7402 22.1074L12.5723 22.1895L12.4902 21.7246C12.2168 20.3574 10.7539 18.457 9.3457 17.6504C8.21094 17.0078 7.30859 16.8027 5.29883 16.7207L3.4668 16.6387L3.5625 17.1035Z" fill="white"/>
<path d="M21.623 16.7754C20.8164 16.8848 19.6953 17.2539 18.998 17.6504C17.5898 18.457 16.127 20.3574 15.8535 21.7246L15.7715 22.1895L17.6035 22.1074C20.3789 21.998 21.7324 21.4648 23.209 19.9336C23.9062 19.209 24.6309 17.9102 24.7812 17.1172L24.877 16.6797L23.4551 16.6934C22.6758 16.707 21.8555 16.748 21.623 16.7754Z" fill="white"/>
<path d="M3.23438 35.8203V38.5547H35.5H67.7656V35.8203V33.0859H35.5H3.23438V35.8203Z" fill="#3E3E3E"/>
<path d="M3.23438 46.0742V50.8594H14.1719H25.1094V46.0742V41.2891H14.1719H3.23438V46.0742ZM15.1562 45.0762C15.4707 45.377 15.5391 45.5547 15.5391 46.0605C15.5391 46.9355 15.0469 47.4414 14.1719 47.4414C13.3105 47.4414 12.8047 46.9355 12.8047 46.0742C12.8047 45.2129 13.3105 44.707 14.1582 44.707C14.6367 44.707 14.8555 44.7891 15.1562 45.0762Z" fill="#3E3E3E"/>
<path d="M3.23438 58.3789V63.1641H14.1719H25.1094V58.3789V53.5938H14.1719H3.23438V58.3789ZM15.1562 57.3809C15.4707 57.6816 15.5391 57.8594 15.5391 58.3652C15.5391 59.2402 15.0469 59.7461 14.1719 59.7461C13.3105 59.7461 12.8047 59.2402 12.8047 58.3789C12.8047 57.5176 13.3105 57.0117 14.1582 57.0117C14.6367 57.0117 14.8555 57.0938 15.1562 57.3809Z" fill="#3E3E3E"/>
<path d="M47.9414 1.6543C47.9414 1.80469 47.7637 2.11914 47.5449 2.33789L47.1484 2.73438H42.418H37.6875V12.4414V22.1484H52.7266H67.7656V12.4414V2.73438H63.0352H58.3047L57.9082 2.33789C57.6895 2.11914 57.5117 1.80469 57.5117 1.6543C57.5117 1.38086 57.4434 1.36719 55.8027 1.36719C54.1621 1.36719 54.0938 1.38086 54.0938 1.6543C54.0938 1.80469 53.916 2.11914 53.6973 2.33789C53.3828 2.65234 53.1777 2.73438 52.7266 2.73438C52.2754 2.73438 52.0703 2.65234 51.7559 2.33789C51.5371 2.11914 51.3594 1.80469 51.3594 1.6543C51.3594 1.38086 51.291 1.36719 49.6504 1.36719C48.0098 1.36719 47.9414 1.38086 47.9414 1.6543Z" fill="#F7F7FF"/>
<path d="M9.38672 26.291C9.38672 28.0273 9.61914 28.9023 10.248 29.5039C10.959 30.1875 11.6973 30.3516 14.1719 30.3516C16.6465 30.3516 17.3848 30.1875 18.0957 29.5039C18.7246 28.9023 18.957 28.0273 18.957 26.291V24.8828H14.1719H9.38672V26.291Z" fill="#8A909A"/>
</g>
<defs>
<clipPath id="clip0_4_715">
<rect width="70" height="70" fill="white" transform="translate(0.5)"/>
</clipPath>
</defs>
</svg>
