<svg width="230" height="36" viewBox="0 0 230 36" fill="none" xmlns="http://www.w3.org/2000/svg">
<path d="M218.042 27.4414H229.028V34.4971H207.739V29.1992L218.384 16.04H207.935V9.00879H228.687V14.3066L218.042 27.4414Z" fill="white"/>
<path d="M205.664 21.8506C205.664 22.7295 205.615 23.4945 205.518 24.1455H186.523C186.979 25.5778 187.785 26.7008 188.94 27.5146C190.096 28.3285 191.471 28.7354 193.066 28.7354C194.434 28.7354 195.679 28.4668 196.802 27.9297C197.925 27.3926 198.812 26.7171 199.463 25.9033L204.37 30.1514C202.987 31.7139 201.302 32.9346 199.316 33.8135C197.331 34.6761 195.182 35.1074 192.871 35.1074C188.818 35.1074 185.433 33.8216 182.715 31.25C180.013 28.6621 178.662 25.4476 178.662 21.6064C178.662 19.1488 179.248 16.9108 180.42 14.8926C181.608 12.8743 183.244 11.2874 185.327 10.1318C187.41 8.97624 189.722 8.39844 192.261 8.39844C196.086 8.39844 199.276 9.67611 201.831 12.2314C204.386 14.7868 205.664 17.9932 205.664 21.8506ZM192.163 14.6973C190.796 14.6973 189.6 15.1123 188.574 15.9424C187.549 16.7562 186.849 17.8711 186.475 19.2871H197.925C197.518 17.8548 196.802 16.7318 195.776 15.918C194.751 15.1042 193.547 14.6973 192.163 14.6973Z" fill="white"/>
<path d="M175.977 21.8506C175.977 22.7295 175.928 23.4945 175.83 24.1455H156.836C157.292 25.5778 158.097 26.7008 159.253 27.5146C160.409 28.3285 161.784 28.7354 163.379 28.7354C164.746 28.7354 165.991 28.4668 167.114 27.9297C168.237 27.3926 169.124 26.7171 169.775 25.9033L174.683 30.1514C173.299 31.7139 171.615 32.9346 169.629 33.8135C167.643 34.6761 165.495 35.1074 163.184 35.1074C159.131 35.1074 155.745 33.8216 153.027 31.25C150.326 28.6621 148.975 25.4476 148.975 21.6064C148.975 19.1488 149.561 16.9108 150.732 14.8926C151.921 12.8743 153.556 11.2874 155.64 10.1318C157.723 8.97624 160.034 8.39844 162.573 8.39844C166.398 8.39844 169.588 9.67611 172.144 12.2314C174.699 14.7868 175.977 17.9932 175.977 21.8506ZM162.476 14.6973C161.108 14.6973 159.912 15.1123 158.887 15.9424C157.861 16.7562 157.161 17.8711 156.787 19.2871H168.237C167.83 17.8548 167.114 16.7318 166.089 15.918C165.063 15.1042 163.859 14.6973 162.476 14.6973Z" fill="white"/>
<path d="M140.845 16.1865C142.456 16.805 143.766 17.9443 144.775 19.6045C145.801 21.2646 146.313 23.112 146.313 25.1465C146.313 27.8646 145.386 30.1025 143.53 31.8604C141.675 33.6182 139.347 34.4971 136.548 34.4971H118.75V0H135.449C138.053 0 140.234 0.838216 141.992 2.51465C143.766 4.1748 144.653 6.28255 144.653 8.83789C144.653 10.3841 144.295 11.8164 143.579 13.1348C142.879 14.4531 141.968 15.4704 140.845 16.1865ZM133.496 7.00684H126.245V13.501H133.496C134.391 13.501 135.148 13.1917 135.767 12.5732C136.385 11.9548 136.694 11.1816 136.694 10.2539C136.694 9.3099 136.385 8.53678 135.767 7.93457C135.164 7.31608 134.408 7.00684 133.496 7.00684ZM134.644 27.4902C135.701 27.4902 136.58 27.1403 137.28 26.4404C137.996 25.7243 138.354 24.8454 138.354 23.8037C138.354 22.7458 137.996 21.8587 137.28 21.1426C136.564 20.4102 135.685 20.0439 134.644 20.0439H126.245V27.4902H134.644Z" fill="white"/>
<path d="M115.015 34.4971H105.518L97.4121 22.5586L89.3311 34.4971H79.8096L92.0654 17.1387L80.0293 0H89.5752L97.5098 11.6943L105.371 0H114.819L102.808 17.1387L115.015 34.4971Z" fill="white"/>
<path d="M62.8662 35.1074C60.848 35.1074 58.9437 34.7493 57.1533 34.0332C55.3792 33.3171 53.8574 32.3405 52.5879 31.1035C51.3184 29.8665 50.3174 28.3854 49.585 26.6602C48.8525 24.9186 48.4863 23.0632 48.4863 21.0938V0H56.2256V20.9961C56.2256 22.9004 56.8522 24.4873 58.1055 25.7568C59.3587 27.0101 60.9456 27.6367 62.8662 27.6367C64.7705 27.6367 66.3574 27.0101 67.627 25.7568C68.8965 24.4873 69.5312 22.9004 69.5312 20.9961V0H77.2705V21.0938C77.2705 23.7142 76.6357 26.0986 75.3662 28.2471C74.113 30.3955 72.3877 32.0801 70.1904 33.3008C67.9932 34.5052 65.5518 35.1074 62.8662 35.1074Z" fill="white"/>
<path d="M34.7168 34.4971V0H42.4805V34.4971H34.7168Z" fill="white"/>
<path d="M14.3799 35.1074C12.3617 35.1074 10.4574 34.7493 8.66699 34.0332C6.8929 33.3171 5.37109 32.3405 4.10156 31.1035C2.83203 29.8665 1.83105 28.3854 1.09863 26.6602C0.366211 24.9186 0 23.0632 0 21.0938V0H7.73926V20.9961C7.73926 22.9004 8.36589 24.4873 9.61914 25.7568C10.8724 27.0101 12.4593 27.6367 14.3799 27.6367C16.2842 27.6367 17.8711 27.0101 19.1406 25.7568C20.4102 24.4873 21.0449 22.9004 21.0449 20.9961V0H28.7842V21.0938C28.7842 23.7142 28.1494 26.0986 26.8799 28.2471C25.6266 30.3955 23.9014 32.0801 21.7041 33.3008C19.5068 34.5052 17.0654 35.1074 14.3799 35.1074Z" fill="white"/>
<path d="M105.29 17.2141L116.29 2.49707V32.4971L105.29 17.2141Z" fill="#FEE65A" stroke="#FEE65A" stroke-width="1.21053"/>
</svg>
