<svg fill="none" height="763" viewBox="0 0 1440 763" width="1440" xmlns="http://www.w3.org/2000/svg" xmlns:xlink="http://www.w3.org/1999/xlink"><radialGradient id="a" cx="0" cy="0" gradientTransform="matrix(0 1440 -751.588 0 720 -.000172)" gradientUnits="userSpaceOnUse" r="1"><stop offset="0"/><stop offset=".953125" stop-opacity="0"/></radialGradient><clipPath id="b"><path d="m-240-865h1920v1408h-1920z"/></clipPath><mask id="c" height="1440" maskUnits="userSpaceOnUse" width="1440" x="0" y="-865"><path d="m0 0h1440v1440h-1440z" fill="url(#a)" transform="translate(0 -865)"/></mask><mask id="d" fill="#fff"><path d="m-48-33h64v64h-64z" fill="#fff"/></mask><mask id="e" fill="#fff"><path d="m16-33h64v64h-64z" fill="#fff"/></mask><mask id="f" fill="#fff"><path d="m80-33h64v64h-64z" fill="#fff"/></mask><mask id="g" fill="#fff"><path d="m144-33h64v64h-64z" fill="#fff"/></mask><mask id="h" fill="#fff"><path d="m208-33h64v64h-64z" fill="#fff"/></mask><mask id="i" fill="#fff"><path d="m272-33h64v64h-64z" fill="#fff"/></mask><mask id="j" fill="#fff"><path d="m336-33h64v64h-64z" fill="#fff"/></mask><mask id="k" fill="#fff"><path d="m400-33h64v64h-64z" fill="#fff"/></mask><mask id="l" fill="#fff"><path d="m464-33h64v64h-64z" fill="#fff"/></mask><mask id="m" fill="#fff"><path d="m528-33h64v64h-64z" fill="#fff"/></mask><mask id="n" fill="#fff"><path d="m592-33h64v64h-64z" fill="#fff"/></mask><mask id="o" fill="#fff"><path d="m656-33h64v64h-64z" fill="#fff"/></mask><mask id="p" fill="#fff"><path d="m720-33h64v64h-64z" fill="#fff"/></mask><mask id="q" fill="#fff"><path d="m784-33h64v64h-64z" fill="#fff"/></mask><mask id="r" fill="#fff"><path d="m848-33h64v64h-64z" fill="#fff"/></mask><mask id="s" fill="#fff"><path d="m912-33h64v64h-64z" fill="#fff"/></mask><mask id="t" fill="#fff"><path d="m976-33h64v64h-64z" fill="#fff"/></mask><mask id="u" fill="#fff"><path d="m1040-33h64v64h-64z" fill="#fff"/></mask><mask id="v" fill="#fff"><path d="m1104-33h64v64h-64z" fill="#fff"/></mask><mask id="w" fill="#fff"><path d="m1168-33h64v64h-64z" fill="#fff"/></mask><mask id="x" fill="#fff"><path d="m1232-33h64v64h-64z" fill="#fff"/></mask><mask id="y" fill="#fff"><path d="m1296-33h64v64h-64z" fill="#fff"/></mask><mask id="z" fill="#fff"><path d="m1360-33h64v64h-64z" fill="#fff"/></mask><mask id="A" fill="#fff"><path d="m1424-33h64v64h-64z" fill="#fff"/></mask><mask id="B" fill="#fff"><path d="m-48 31h64v64h-64z" fill="#fff"/></mask><mask id="C" fill="#fff"><path d="m16 31h64v64h-64z" fill="#fff"/></mask><mask id="D" fill="#fff"><path d="m80 31h64v64h-64z" fill="#fff"/></mask><mask id="E" fill="#fff"><path d="m144 31h64v64h-64z" fill="#fff"/></mask><mask id="F" fill="#fff"><path d="m208 31h64v64h-64z" fill="#fff"/></mask><mask id="G" fill="#fff"><path d="m272 31h64v64h-64z" fill="#fff"/></mask><mask id="H" fill="#fff"><path d="m336 31h64v64h-64z" fill="#fff"/></mask><mask id="I" fill="#fff"><path d="m400 31h64v64h-64z" fill="#fff"/></mask><mask id="J" fill="#fff"><path d="m464 31h64v64h-64z" fill="#fff"/></mask><mask id="K" fill="#fff"><path d="m528 31h64v64h-64z" fill="#fff"/></mask><mask id="L" fill="#fff"><path d="m592 31h64v64h-64z" fill="#fff"/></mask><mask id="M" fill="#fff"><path d="m656 31h64v64h-64z" fill="#fff"/></mask><mask id="N" fill="#fff"><path d="m720 31h64v64h-64z" fill="#fff"/></mask><mask id="O" fill="#fff"><path d="m784 31h64v64h-64z" fill="#fff"/></mask><mask id="P" fill="#fff"><path d="m848 31h64v64h-64z" fill="#fff"/></mask><mask id="Q" fill="#fff"><path d="m912 31h64v64h-64z" fill="#fff"/></mask><mask id="R" fill="#fff"><path d="m976 31h64v64h-64z" fill="#fff"/></mask><mask id="S" fill="#fff"><path d="m1040 31h64v64h-64z" fill="#fff"/></mask><mask id="T" fill="#fff"><path d="m1104 31h64v64h-64z" fill="#fff"/></mask><mask id="U" fill="#fff"><path d="m1168 31h64v64h-64z" fill="#fff"/></mask><mask id="V" fill="#fff"><path d="m1232 31h64v64h-64z" fill="#fff"/></mask><mask id="W" fill="#fff"><path d="m1296 31h64v64h-64z" fill="#fff"/></mask><mask id="X" fill="#fff"><path d="m1360 31h64v64h-64z" fill="#fff"/></mask><mask id="Y" fill="#fff"><path d="m1424 31h64v64h-64z" fill="#fff"/></mask><mask id="Z" fill="#fff"><path d="m-48 95h64v64h-64z" fill="#fff"/></mask><mask id="aa" fill="#fff"><path d="m16 95h64v64h-64z" fill="#fff"/></mask><mask id="ab" fill="#fff"><path d="m80 95h64v64h-64z" fill="#fff"/></mask><mask id="ac" fill="#fff"><path d="m144 95h64v64h-64z" fill="#fff"/></mask><mask id="ad" fill="#fff"><path d="m208 95h64v64h-64z" fill="#fff"/></mask><mask id="ae" fill="#fff"><path d="m272 95h64v64h-64z" fill="#fff"/></mask><mask id="af" fill="#fff"><path d="m336 95h64v64h-64z" fill="#fff"/></mask><mask id="ag" fill="#fff"><path d="m400 95h64v64h-64z" fill="#fff"/></mask><mask id="ah" fill="#fff"><path d="m464 95h64v64h-64z" fill="#fff"/></mask><mask id="ai" fill="#fff"><path d="m528 95h64v64h-64z" fill="#fff"/></mask><mask id="aj" fill="#fff"><path d="m592 95h64v64h-64z" fill="#fff"/></mask><mask id="ak" fill="#fff"><path d="m656 95h64v64h-64z" fill="#fff"/></mask><mask id="al" fill="#fff"><path d="m720 95h64v64h-64z" fill="#fff"/></mask><mask id="am" fill="#fff"><path d="m784 95h64v64h-64z" fill="#fff"/></mask><mask id="an" fill="#fff"><path d="m848 95h64v64h-64z" fill="#fff"/></mask><mask id="ao" fill="#fff"><path d="m912 95h64v64h-64z" fill="#fff"/></mask><mask id="ap" fill="#fff"><path d="m976 95h64v64h-64z" fill="#fff"/></mask><mask id="aq" fill="#fff"><path d="m1040 95h64v64h-64z" fill="#fff"/></mask><mask id="ar" fill="#fff"><path d="m1104 95h64v64h-64z" fill="#fff"/></mask><mask id="as" fill="#fff"><path d="m1168 95h64v64h-64z" fill="#fff"/></mask><mask id="at" fill="#fff"><path d="m1232 95h64v64h-64z" fill="#fff"/></mask><mask id="au" fill="#fff"><path d="m1296 95h64v64h-64z" fill="#fff"/></mask><mask id="av" fill="#fff"><path d="m1360 95h64v64h-64z" fill="#fff"/></mask><mask id="aw" fill="#fff"><path d="m1424 95h64v64h-64z" fill="#fff"/></mask><mask id="ax" fill="#fff"><path d="m-48 159h64v64h-64z" fill="#fff"/></mask><mask id="ay" fill="#fff"><path d="m16 159h64v64h-64z" fill="#fff"/></mask><mask id="az" fill="#fff"><path d="m80 159h64v64h-64z" fill="#fff"/></mask><mask id="aA" fill="#fff"><path d="m144 159h64v64h-64z" fill="#fff"/></mask><mask id="aB" fill="#fff"><path d="m208 159h64v64h-64z" fill="#fff"/></mask><mask id="aC" fill="#fff"><path d="m272 159h64v64h-64z" fill="#fff"/></mask><mask id="aD" fill="#fff"><path d="m336 159h64v64h-64z" fill="#fff"/></mask><mask id="aE" fill="#fff"><path d="m400 159h64v64h-64z" fill="#fff"/></mask><mask id="aF" fill="#fff"><path d="m464 159h64v64h-64z" fill="#fff"/></mask><mask id="aG" fill="#fff"><path d="m528 159h64v64h-64z" fill="#fff"/></mask><mask id="aH" fill="#fff"><path d="m592 159h64v64h-64z" fill="#fff"/></mask><mask id="aI" fill="#fff"><path d="m656 159h64v64h-64z" fill="#fff"/></mask><mask id="aJ" fill="#fff"><path d="m720 159h64v64h-64z" fill="#fff"/></mask><mask id="aK" fill="#fff"><path d="m784 159h64v64h-64z" fill="#fff"/></mask><mask id="aL" fill="#fff"><path d="m848 159h64v64h-64z" fill="#fff"/></mask><mask id="aM" fill="#fff"><path d="m912 159h64v64h-64z" fill="#fff"/></mask><mask id="aN" fill="#fff"><path d="m976 159h64v64h-64z" fill="#fff"/></mask><mask id="aO" fill="#fff"><path d="m1040 159h64v64h-64z" fill="#fff"/></mask><mask id="aP" fill="#fff"><path d="m1104 159h64v64h-64z" fill="#fff"/></mask><mask id="aQ" fill="#fff"><path d="m1168 159h64v64h-64z" fill="#fff"/></mask><mask id="aR" fill="#fff"><path d="m1232 159h64v64h-64z" fill="#fff"/></mask><mask id="aS" fill="#fff"><path d="m1296 159h64v64h-64z" fill="#fff"/></mask><mask id="aT" fill="#fff"><path d="m1360 159h64v64h-64z" fill="#fff"/></mask><mask id="aU" fill="#fff"><path d="m1424 159h64v64h-64z" fill="#fff"/></mask><mask id="aV" fill="#fff"><path d="m-48 223h64v64h-64z" fill="#fff"/></mask><mask id="aW" fill="#fff"><path d="m16 223h64v64h-64z" fill="#fff"/></mask><mask id="aX" fill="#fff"><path d="m80 223h64v64h-64z" fill="#fff"/></mask><mask id="aY" fill="#fff"><path d="m144 223h64v64h-64z" fill="#fff"/></mask><mask id="aZ" fill="#fff"><path d="m208 223h64v64h-64z" fill="#fff"/></mask><mask id="a0" fill="#fff"><path d="m272 223h64v64h-64z" fill="#fff"/></mask><mask id="a1" fill="#fff"><path d="m336 223h64v64h-64z" fill="#fff"/></mask><mask id="a2" fill="#fff"><path d="m400 223h64v64h-64z" fill="#fff"/></mask><mask id="a3" fill="#fff"><path d="m464 223h64v64h-64z" fill="#fff"/></mask><mask id="a4" fill="#fff"><path d="m528 223h64v64h-64z" fill="#fff"/></mask><mask id="a5" fill="#fff"><path d="m592 223h64v64h-64z" fill="#fff"/></mask><mask id="a6" fill="#fff"><path d="m656 223h64v64h-64z" fill="#fff"/></mask><mask id="a7" fill="#fff"><path d="m720 223h64v64h-64z" fill="#fff"/></mask><mask id="a8" fill="#fff"><path d="m784 223h64v64h-64z" fill="#fff"/></mask><mask id="a9" fill="#fff"><path d="m848 223h64v64h-64z" fill="#fff"/></mask><mask id="ba" fill="#fff"><path d="m912 223h64v64h-64z" fill="#fff"/></mask><mask id="bb" fill="#fff"><path d="m976 223h64v64h-64z" fill="#fff"/></mask><mask id="bc" fill="#fff"><path d="m1040 223h64v64h-64z" fill="#fff"/></mask><mask id="bd" fill="#fff"><path d="m1104 223h64v64h-64z" fill="#fff"/></mask><mask id="be" fill="#fff"><path d="m1168 223h64v64h-64z" fill="#fff"/></mask><mask id="bf" fill="#fff"><path d="m1232 223h64v64h-64z" fill="#fff"/></mask><mask id="bg" fill="#fff"><path d="m1296 223h64v64h-64z" fill="#fff"/></mask><mask id="bh" fill="#fff"><path d="m1360 223h64v64h-64z" fill="#fff"/></mask><mask id="bi" fill="#fff"><path d="m1424 223h64v64h-64z" fill="#fff"/></mask><mask id="bj" fill="#fff"><path d="m-48 287h64v64h-64z" fill="#fff"/></mask><mask id="bk" fill="#fff"><path d="m16 287h64v64h-64z" fill="#fff"/></mask><mask id="bl" fill="#fff"><path d="m80 287h64v64h-64z" fill="#fff"/></mask><mask id="bm" fill="#fff"><path d="m144 287h64v64h-64z" fill="#fff"/></mask><mask id="bn" fill="#fff"><path d="m208 287h64v64h-64z" fill="#fff"/></mask><mask id="bo" fill="#fff"><path d="m272 287h64v64h-64z" fill="#fff"/></mask><mask id="bp" fill="#fff"><path d="m336 287h64v64h-64z" fill="#fff"/></mask><mask id="bq" fill="#fff"><path d="m400 287h64v64h-64z" fill="#fff"/></mask><mask id="br" fill="#fff"><path d="m464 287h64v64h-64z" fill="#fff"/></mask><mask id="bs" fill="#fff"><path d="m528 287h64v64h-64z" fill="#fff"/></mask><mask id="bt" fill="#fff"><path d="m592 287h64v64h-64z" fill="#fff"/></mask><mask id="bu" fill="#fff"><path d="m656 287h64v64h-64z" fill="#fff"/></mask><mask id="bv" fill="#fff"><path d="m720 287h64v64h-64z" fill="#fff"/></mask><mask id="bw" fill="#fff"><path d="m784 287h64v64h-64z" fill="#fff"/></mask><mask id="bx" fill="#fff"><path d="m848 287h64v64h-64z" fill="#fff"/></mask><mask id="by" fill="#fff"><path d="m912 287h64v64h-64z" fill="#fff"/></mask><mask id="bz" fill="#fff"><path d="m976 287h64v64h-64z" fill="#fff"/></mask><mask id="bA" fill="#fff"><path d="m1040 287h64v64h-64z" fill="#fff"/></mask><mask id="bB" fill="#fff"><path d="m1104 287h64v64h-64z" fill="#fff"/></mask><mask id="bC" fill="#fff"><path d="m1168 287h64v64h-64z" fill="#fff"/></mask><mask id="bD" fill="#fff"><path d="m1232 287h64v64h-64z" fill="#fff"/></mask><mask id="bE" fill="#fff"><path d="m1296 287h64v64h-64z" fill="#fff"/></mask><mask id="bF" fill="#fff"><path d="m1360 287h64v64h-64z" fill="#fff"/></mask><mask id="bG" fill="#fff"><path d="m1424 287h64v64h-64z" fill="#fff"/></mask><mask id="bH" fill="#fff"><path d="m-48 351h64v64h-64z" fill="#fff"/></mask><mask id="bI" fill="#fff"><path d="m16 351h64v64h-64z" fill="#fff"/></mask><mask id="bJ" fill="#fff"><path d="m80 351h64v64h-64z" fill="#fff"/></mask><mask id="bK" fill="#fff"><path d="m144 351h64v64h-64z" fill="#fff"/></mask><mask id="bL" fill="#fff"><path d="m208 351h64v64h-64z" fill="#fff"/></mask><mask id="bM" fill="#fff"><path d="m272 351h64v64h-64z" fill="#fff"/></mask><mask id="bN" fill="#fff"><path d="m336 351h64v64h-64z" fill="#fff"/></mask><mask id="bO" fill="#fff"><path d="m400 351h64v64h-64z" fill="#fff"/></mask><mask id="bP" fill="#fff"><path d="m464 351h64v64h-64z" fill="#fff"/></mask><mask id="bQ" fill="#fff"><path d="m528 351h64v64h-64z" fill="#fff"/></mask><mask id="bR" fill="#fff"><path d="m592 351h64v64h-64z" fill="#fff"/></mask><mask id="bS" fill="#fff"><path d="m656 351h64v64h-64z" fill="#fff"/></mask><mask id="bT" fill="#fff"><path d="m720 351h64v64h-64z" fill="#fff"/></mask><mask id="bU" fill="#fff"><path d="m784 351h64v64h-64z" fill="#fff"/></mask><mask id="bV" fill="#fff"><path d="m848 351h64v64h-64z" fill="#fff"/></mask><mask id="bW" fill="#fff"><path d="m912 351h64v64h-64z" fill="#fff"/></mask><mask id="bX" fill="#fff"><path d="m976 351h64v64h-64z" fill="#fff"/></mask><mask id="bY" fill="#fff"><path d="m1040 351h64v64h-64z" fill="#fff"/></mask><mask id="bZ" fill="#fff"><path d="m1104 351h64v64h-64z" fill="#fff"/></mask><mask id="b0" fill="#fff"><path d="m1168 351h64v64h-64z" fill="#fff"/></mask><mask id="b1" fill="#fff"><path d="m1232 351h64v64h-64z" fill="#fff"/></mask><mask id="b2" fill="#fff"><path d="m1296 351h64v64h-64z" fill="#fff"/></mask><mask id="b3" fill="#fff"><path d="m1360 351h64v64h-64z" fill="#fff"/></mask><mask id="b4" fill="#fff"><path d="m1424 351h64v64h-64z" fill="#fff"/></mask><mask id="b5" fill="#fff"><path d="m-48 415h64v64h-64z" fill="#fff"/></mask><mask id="b6" fill="#fff"><path d="m16 415h64v64h-64z" fill="#fff"/></mask><mask id="b7" fill="#fff"><path d="m80 415h64v64h-64z" fill="#fff"/></mask><mask id="b8" fill="#fff"><path d="m144 415h64v64h-64z" fill="#fff"/></mask><mask id="b9" fill="#fff"><path d="m208 415h64v64h-64z" fill="#fff"/></mask><mask id="ca" fill="#fff"><path d="m272 415h64v64h-64z" fill="#fff"/></mask><mask id="cb" fill="#fff"><path d="m336 415h64v64h-64z" fill="#fff"/></mask><mask id="cc" fill="#fff"><path d="m400 415h64v64h-64z" fill="#fff"/></mask><mask id="cd" fill="#fff"><path d="m464 415h64v64h-64z" fill="#fff"/></mask><mask id="ce" fill="#fff"><path d="m528 415h64v64h-64z" fill="#fff"/></mask><mask id="cf" fill="#fff"><path d="m592 415h64v64h-64z" fill="#fff"/></mask><mask id="cg" fill="#fff"><path d="m656 415h64v64h-64z" fill="#fff"/></mask><mask id="ch" fill="#fff"><path d="m720 415h64v64h-64z" fill="#fff"/></mask><mask id="ci" fill="#fff"><path d="m784 415h64v64h-64z" fill="#fff"/></mask><mask id="cj" fill="#fff"><path d="m848 415h64v64h-64z" fill="#fff"/></mask><mask id="ck" fill="#fff"><path d="m912 415h64v64h-64z" fill="#fff"/></mask><mask id="cl" fill="#fff"><path d="m976 415h64v64h-64z" fill="#fff"/></mask><mask id="cm" fill="#fff"><path d="m1040 415h64v64h-64z" fill="#fff"/></mask><mask id="cn" fill="#fff"><path d="m1104 415h64v64h-64z" fill="#fff"/></mask><mask id="co" fill="#fff"><path d="m1168 415h64v64h-64z" fill="#fff"/></mask><mask id="cp" fill="#fff"><path d="m1232 415h64v64h-64z" fill="#fff"/></mask><mask id="cq" fill="#fff"><path d="m1296 415h64v64h-64z" fill="#fff"/></mask><mask id="cr" fill="#fff"><path d="m1360 415h64v64h-64z" fill="#fff"/></mask><mask id="cs" fill="#fff"><path d="m1424 415h64v64h-64z" fill="#fff"/></mask><mask id="ct" fill="#fff"><path d="m-48 479h64v64h-64z" fill="#fff"/></mask><mask id="cu" fill="#fff"><path d="m16 479h64v64h-64z" fill="#fff"/></mask><mask id="cv" fill="#fff"><path d="m80 479h64v64h-64z" fill="#fff"/></mask><mask id="cw" fill="#fff"><path d="m144 479h64v64h-64z" fill="#fff"/></mask><mask id="cx" fill="#fff"><path d="m208 479h64v64h-64z" fill="#fff"/></mask><mask id="cy" fill="#fff"><path d="m272 479h64v64h-64z" fill="#fff"/></mask><mask id="cz" fill="#fff"><path d="m336 479h64v64h-64z" fill="#fff"/></mask><mask id="cA" fill="#fff"><path d="m400 479h64v64h-64z" fill="#fff"/></mask><mask id="cB" fill="#fff"><path d="m464 479h64v64h-64z" fill="#fff"/></mask><mask id="cC" fill="#fff"><path d="m528 479h64v64h-64z" fill="#fff"/></mask><mask id="cD" fill="#fff"><path d="m592 479h64v64h-64z" fill="#fff"/></mask><mask id="cE" fill="#fff"><path d="m656 479h64v64h-64z" fill="#fff"/></mask><mask id="cF" fill="#fff"><path d="m720 479h64v64h-64z" fill="#fff"/></mask><mask id="cG" fill="#fff"><path d="m784 479h64v64h-64z" fill="#fff"/></mask><mask id="cH" fill="#fff"><path d="m848 479h64v64h-64z" fill="#fff"/></mask><mask id="cI" fill="#fff"><path d="m912 479h64v64h-64z" fill="#fff"/></mask><mask id="cJ" fill="#fff"><path d="m976 479h64v64h-64z" fill="#fff"/></mask><mask id="cK" fill="#fff"><path d="m1040 479h64v64h-64z" fill="#fff"/></mask><mask id="cL" fill="#fff"><path d="m1104 479h64v64h-64z" fill="#fff"/></mask><mask id="cM" fill="#fff"><path d="m1168 479h64v64h-64z" fill="#fff"/></mask><mask id="cN" fill="#fff"><path d="m1232 479h64v64h-64z" fill="#fff"/></mask><mask id="cO" fill="#fff"><path d="m1296 479h64v64h-64z" fill="#fff"/></mask><mask id="cP" fill="#fff"><path d="m1360 479h64v64h-64z" fill="#fff"/></mask><mask id="cQ" fill="#fff"><path d="m1424 479h64v64h-64z" fill="#fff"/></mask><g mask="url(#c)" opacity=".15"><g clip-path="url(#b)"><path d="m16 31v1h1v-1zm-1-64v64h2v-64zm1 63h-64v2h64z" fill="#b8cbf4" mask="url(#d)"/><path d="m80 31v1h1v-1zm-1-64v64h2v-64zm1 63h-64v2h64z" fill="#b8cbf4" mask="url(#e)"/><path d="m144 31v1h1v-1zm-1-64v64h2v-64zm1 63h-64v2h64z" fill="#b8cbf4" mask="url(#f)"/><path d="m208 31v1h1v-1zm-1-64v64h2v-64zm1 63h-64v2h64z" fill="#b8cbf4" mask="url(#g)"/><path d="m272 31v1h1v-1zm-1-64v64h2v-64zm1 63h-64v2h64z" fill="#b8cbf4" mask="url(#h)"/><path d="m336 31v1h1v-1zm-1-64v64h2v-64zm1 63h-64v2h64z" fill="#b8cbf4" mask="url(#i)"/><g opacity=".5"><path d="m336-33h64v64h-64z" fill="#e8eefb"/><path d="m400 31v1h1v-1zm-1-64v64h2v-64zm1 63h-64v2h64z" fill="#b8cbf4" mask="url(#j)"/></g><path d="m464 31v1h1v-1zm-1-64v64h2v-64zm1 63h-64v2h64z" fill="#b8cbf4" mask="url(#k)"/><path d="m528 31v1h1v-1zm-1-64v64h2v-64zm1 63h-64v2h64z" fill="#b8cbf4" mask="url(#l)"/><path d="m592 31v1h1v-1zm-1-64v64h2v-64zm1 63h-64v2h64z" fill="#b8cbf4" mask="url(#m)"/><path d="m656 31v1h1v-1zm-1-64v64h2v-64zm1 63h-64v2h64z" fill="#b8cbf4" mask="url(#n)"/><path d="m720 31v1h1v-1zm-1-64v64h2v-64zm1 63h-64v2h64z" fill="#b8cbf4" mask="url(#o)"/><path d="m784 31v1h1v-1zm-1-64v64h2v-64zm1 63h-64v2h64z" fill="#b8cbf4" mask="url(#p)"/><path d="m848 31v1h1v-1zm-1-64v64h2v-64zm1 63h-64v2h64z" fill="#b8cbf4" mask="url(#q)"/><path d="m912 31v1h1v-1zm-1-64v64h2v-64zm1 63h-64v2h64z" fill="#b8cbf4" mask="url(#r)"/><g opacity=".5"><path d="m912-33h64v64h-64z" fill="#e8eefb"/><path d="m976 31v1h1v-1zm-1-64v64h2v-64zm1 63h-64v2h64z" fill="#b8cbf4" mask="url(#s)"/></g><path d="m1040 31v1h1v-1zm-1-64v64h2v-64zm1 63h-64v2h64z" fill="#b8cbf4" mask="url(#t)"/><path d="m1104 31v1h1v-1zm-1-64v64h2v-64zm1 63h-64v2h64z" fill="#b8cbf4" mask="url(#u)"/><path d="m1168 31v1h1v-1zm-1-64v64h2v-64zm1 63h-64v2h64z" fill="#b8cbf4" mask="url(#v)"/><path d="m1232 31v1h1v-1zm-1-64v64h2v-64zm1 63h-64v2h64z" fill="#b8cbf4" mask="url(#w)"/><path d="m1296 31v1h1v-1zm-1-64v64h2v-64zm1 63h-64v2h64z" fill="#b8cbf4" mask="url(#x)"/><path d="m1360 31v1h1v-1zm-1-64v64h2v-64zm1 63h-64v2h64z" fill="#b8cbf4" mask="url(#y)"/><path d="m1424 31v1h1v-1zm-1-64v64h2v-64zm1 63h-64v2h64z" fill="#b8cbf4" mask="url(#z)"/><path d="m1424-33h64v64h-64z" fill="#e8eefb"/><path d="m1488 31v1h1v-1zm-1-64v64h2v-64zm1 63h-64v2h64z" fill="#b8cbf4" mask="url(#A)"/><path d="m16 95v1h1v-1zm-1-64v64h2v-64zm1 63h-64v2h64z" fill="#b8cbf4" mask="url(#B)"/><path d="m80 95v1h1v-1zm-1-64v64h2v-64zm1 63h-64v2h64z" fill="#b8cbf4" mask="url(#C)"/><path d="m144 95v1h1v-1zm-1-64v64h2v-64zm1 63h-64v2h64z" fill="#b8cbf4" mask="url(#D)"/><path d="m144 31h64v64h-64z" fill="#e8eefb"/><path d="m208 95v1h1v-1zm-1-64v64h2v-64zm1 63h-64v2h64z" fill="#b8cbf4" mask="url(#E)"/><path d="m272 95v1h1v-1zm-1-64v64h2v-64zm1 63h-64v2h64z" fill="#b8cbf4" mask="url(#F)"/><path d="m336 95v1h1v-1zm-1-64v64h2v-64zm1 63h-64v2h64z" fill="#b8cbf4" mask="url(#G)"/><path d="m400 95v1h1v-1zm-1-64v64h2v-64zm1 63h-64v2h64z" fill="#b8cbf4" mask="url(#H)"/><path d="m464 95v1h1v-1zm-1-64v64h2v-64zm1 63h-64v2h64z" fill="#b8cbf4" mask="url(#I)"/><path d="m528 95v1h1v-1zm-1-64v64h2v-64zm1 63h-64v2h64z" fill="#b8cbf4" mask="url(#J)"/><path d="m592 95v1h1v-1zm-1-64v64h2v-64zm1 63h-64v2h64z" fill="#b8cbf4" mask="url(#K)"/><path d="m656 95v1h1v-1zm-1-64v64h2v-64zm1 63h-64v2h64z" fill="#b8cbf4" mask="url(#L)"/><path d="m720 95v1h1v-1zm-1-64v64h2v-64zm1 63h-64v2h64z" fill="#b8cbf4" mask="url(#M)"/><g opacity=".5"><path d="m720 31h64v64h-64z" fill="#e8eefb"/><path d="m784 95v1h1v-1zm-1-64v64h2v-64zm1 63h-64v2h64z" fill="#b8cbf4" mask="url(#N)"/></g><path d="m848 95v1h1v-1zm-1-64v64h2v-64zm1 63h-64v2h64z" fill="#b8cbf4" mask="url(#O)"/><path d="m912 95v1h1v-1zm-1-64v64h2v-64zm1 63h-64v2h64z" fill="#b8cbf4" mask="url(#P)"/><path d="m976 95v1h1v-1zm-1-64v64h2v-64zm1 63h-64v2h64z" fill="#b8cbf4" mask="url(#Q)"/><path d="m1040 95v1h1v-1zm-1-64v64h2v-64zm1 63h-64v2h64z" fill="#b8cbf4" mask="url(#R)"/><path d="m1104 95v1h1v-1zm-1-64v64h2v-64zm1 63h-64v2h64z" fill="#b8cbf4" mask="url(#S)"/><path d="m1168 95v1h1v-1zm-1-64v64h2v-64zm1 63h-64v2h64z" fill="#b8cbf4" mask="url(#T)"/><path d="m1168 31h64v64h-64z" fill="#e8eefb"/><path d="m1232 95v1h1v-1zm-1-64v64h2v-64zm1 63h-64v2h64z" fill="#b8cbf4" mask="url(#U)"/><path d="m1296 95v1h1v-1zm-1-64v64h2v-64zm1 63h-64v2h64z" fill="#b8cbf4" mask="url(#V)"/><path d="m1360 95v1h1v-1zm-1-64v64h2v-64zm1 63h-64v2h64z" fill="#b8cbf4" mask="url(#W)"/><path d="m1424 95v1h1v-1zm-1-64v64h2v-64zm1 63h-64v2h64z" fill="#b8cbf4" mask="url(#X)"/><path d="m1488 95v1h1v-1zm-1-64v64h2v-64zm1 63h-64v2h64z" fill="#b8cbf4" mask="url(#Y)"/><path d="m16 159v1h1v-1zm-1-64v64h2v-64zm1 63h-64v2h64z" fill="#b8cbf4" mask="url(#Z)"/><path d="m16 95h64v64h-64z" fill="#e8eefb"/><path d="m80 159v1h1v-1zm-1-64v64h2v-64zm1 63h-64v2h64z" fill="#b8cbf4" mask="url(#aa)"/><path d="m144 159v1h1v-1zm-1-64v64h2v-64zm1 63h-64v2h64z" fill="#b8cbf4" mask="url(#ab)"/><path d="m208 159v1h1v-1zm-1-64v64h2v-64zm1 63h-64v2h64z" fill="#b8cbf4" mask="url(#ac)"/><path d="m272 159v1h1v-1zm-1-64v64h2v-64zm1 63h-64v2h64z" fill="#b8cbf4" mask="url(#ad)"/><path d="m336 159v1h1v-1zm-1-64v64h2v-64zm1 63h-64v2h64z" fill="#b8cbf4" mask="url(#ae)"/><path d="m400 159v1h1v-1zm-1-64v64h2v-64zm1 63h-64v2h64z" fill="#b8cbf4" mask="url(#af)"/><path d="m464 159v1h1v-1zm-1-64v64h2v-64zm1 63h-64v2h64z" fill="#b8cbf4" mask="url(#ag)"/><path d="m464 95h64v64h-64z" fill="#fff" fill-opacity=".36"/><path d="m528 159v1h1v-1zm-1-64v64h2v-64zm1 63h-64v2h64z" fill="#96b1ee" mask="url(#ah)"/><path d="m592 159v1h1v-1zm-1-64v64h2v-64zm1 63h-64v2h64z" fill="#b8cbf4" mask="url(#ai)"/><path d="m656 159v1h1v-1zm-1-64v64h2v-64zm1 63h-64v2h64z" fill="#b8cbf4" mask="url(#aj)"/><path d="m720 159v1h1v-1zm-1-64v64h2v-64zm1 63h-64v2h64z" fill="#b8cbf4" mask="url(#ak)"/><path d="m784 159v1h1v-1zm-1-64v64h2v-64zm1 63h-64v2h64z" fill="#b8cbf4" mask="url(#al)"/><path d="m848 159v1h1v-1zm-1-64v64h2v-64zm1 63h-64v2h64z" fill="#b8cbf4" mask="url(#am)"/><path d="m912 159v1h1v-1zm-1-64v64h2v-64zm1 63h-64v2h64z" fill="#b8cbf4" mask="url(#an)"/><path d="m976 159v1h1v-1zm-1-64v64h2v-64zm1 63h-64v2h64z" fill="#b8cbf4" mask="url(#ao)"/><path d="m976 95h64v64h-64z" fill="#fff" fill-opacity=".36"/><path d="m1040 159v1h1v-1zm-1-64v64h2v-64zm1 63h-64v2h64z" fill="#96b1ee" mask="url(#ap)"/><path d="m1104 159v1h1v-1zm-1-64v64h2v-64zm1 63h-64v2h64z" fill="#b8cbf4" mask="url(#aq)"/><path d="m1168 159v1h1v-1zm-1-64v64h2v-64zm1 63h-64v2h64z" fill="#b8cbf4" mask="url(#ar)"/><path d="m1232 159v1h1v-1zm-1-64v64h2v-64zm1 63h-64v2h64z" fill="#b8cbf4" mask="url(#as)"/><path d="m1296 159v1h1v-1zm-1-64v64h2v-64zm1 63h-64v2h64z" fill="#b8cbf4" mask="url(#at)"/><path d="m1360 159v1h1v-1zm-1-64v64h2v-64zm1 63h-64v2h64z" fill="#b8cbf4" mask="url(#au)"/><path d="m1424 159v1h1v-1zm-1-64v64h2v-64zm1 63h-64v2h64z" fill="#b8cbf4" mask="url(#av)"/><path d="m1488 159v1h1v-1zm-1-64v64h2v-64zm1 63h-64v2h64z" fill="#b8cbf4" mask="url(#aw)"/><path d="m16 223v1h1v-1zm-1-64v64h2v-64zm1 63h-64v2h64z" fill="#b8cbf4" mask="url(#ax)"/><path d="m80 223v1h1v-1zm-1-64v64h2v-64zm1 63h-64v2h64z" fill="#b8cbf4" mask="url(#ay)"/><path d="m144 223v1h1v-1zm-1-64v64h2v-64zm1 63h-64v2h64z" fill="#b8cbf4" mask="url(#az)"/><path d="m208 223v1h1v-1zm-1-64v64h2v-64zm1 63h-64v2h64z" fill="#b8cbf4" mask="url(#aA)"/><path d="m208 159h64v64h-64z" fill="#e8eefb"/><g fill="#b8cbf4"><path d="m272 223v1h1v-1zm-1-64v64h2v-64zm1 63h-64v2h64z" mask="url(#aB)"/><path d="m336 223v1h1v-1zm-1-64v64h2v-64zm1 63h-64v2h64z" mask="url(#aC)"/><path d="m400 223v1h1v-1zm-1-64v64h2v-64zm1 63h-64v2h64z" mask="url(#aD)"/><path d="m464 223v1h1v-1zm-1-64v64h2v-64zm1 63h-64v2h64z" mask="url(#aE)"/><path d="m528 223v1h1v-1zm-1-64v64h2v-64zm1 63h-64v2h64z" mask="url(#aF)"/><path d="m592 223v1h1v-1zm-1-64v64h2v-64zm1 63h-64v2h64z" mask="url(#aG)"/><path d="m656 223v1h1v-1zm-1-64v64h2v-64zm1 63h-64v2h64z" mask="url(#aH)"/><path d="m720 223v1h1v-1zm-1-64v64h2v-64zm1 63h-64v2h64z" mask="url(#aI)"/><path d="m784 223v1h1v-1zm-1-64v64h2v-64zm1 63h-64v2h64z" mask="url(#aJ)"/><path d="m848 223v1h1v-1zm-1-64v64h2v-64zm1 63h-64v2h64z" mask="url(#aK)"/><path d="m912 223v1h1v-1zm-1-64v64h2v-64zm1 63h-64v2h64z" mask="url(#aL)"/><path d="m976 223v1h1v-1zm-1-64v64h2v-64zm1 63h-64v2h64z" mask="url(#aM)"/><path d="m1040 223v1h1v-1zm-1-64v64h2v-64zm1 63h-64v2h64z" mask="url(#aN)"/><path d="m1104 223v1h1v-1zm-1-64v64h2v-64zm1 63h-64v2h64z" mask="url(#aO)"/><path d="m1168 223v1h1v-1zm-1-64v64h2v-64zm1 63h-64v2h64z" mask="url(#aP)"/></g><path d="m1168 159h64v64h-64z" fill="#e8eefb"/><path d="m1232 223v1h1v-1zm-1-64v64h2v-64zm1 63h-64v2h64z" fill="#b8cbf4" mask="url(#aQ)"/><path d="m1296 223v1h1v-1zm-1-64v64h2v-64zm1 63h-64v2h64z" fill="#b8cbf4" mask="url(#aR)"/><path d="m1360 223v1h1v-1zm-1-64v64h2v-64zm1 63h-64v2h64z" fill="#b8cbf4" mask="url(#aS)"/><path d="m1424 223v1h1v-1zm-1-64v64h2v-64zm1 63h-64v2h64z" fill="#b8cbf4" mask="url(#aT)"/><path d="m1488 223v1h1v-1zm-1-64v64h2v-64zm1 63h-64v2h64z" fill="#b8cbf4" mask="url(#aU)"/><path d="m16 287v1h1v-1zm-1-64v64h2v-64zm1 63h-64v2h64z" fill="#b8cbf4" mask="url(#aV)"/><path d="m80 287v1h1v-1zm-1-64v64h2v-64zm1 63h-64v2h64z" fill="#b8cbf4" mask="url(#aW)"/><path d="m144 287v1h1v-1zm-1-64v64h2v-64zm1 63h-64v2h64z" fill="#b8cbf4" mask="url(#aX)"/><path d="m208 287v1h1v-1zm-1-64v64h2v-64zm1 63h-64v2h64z" fill="#b8cbf4" mask="url(#aY)"/><path d="m272 287v1h1v-1zm-1-64v64h2v-64zm1 63h-64v2h64z" fill="#b8cbf4" mask="url(#aZ)"/><path d="m336 287v1h1v-1zm-1-64v64h2v-64zm1 63h-64v2h64z" fill="#b8cbf4" mask="url(#a0)"/><path d="m400 287v1h1v-1zm-1-64v64h2v-64zm1 63h-64v2h64z" fill="#b8cbf4" mask="url(#a1)"/><path d="m464 287v1h1v-1zm-1-64v64h2v-64zm1 63h-64v2h64z" fill="#b8cbf4" mask="url(#a2)"/><path d="m528 287v1h1v-1zm-1-64v64h2v-64zm1 63h-64v2h64z" fill="#b8cbf4" mask="url(#a3)"/><path d="m528 223h64v64h-64z" fill="#fff" fill-opacity=".36"/><path d="m592 287v1h1v-1zm-1-64v64h2v-64zm1 63h-64v2h64z" fill="#96b1ee" mask="url(#a4)"/><path d="m656 287v1h1v-1zm-1-64v64h2v-64zm1 63h-64v2h64z" fill="#b8cbf4" mask="url(#a5)"/><path d="m720 287v1h1v-1zm-1-64v64h2v-64zm1 63h-64v2h64z" fill="#b8cbf4" mask="url(#a6)"/><path d="m784 287v1h1v-1zm-1-64v64h2v-64zm1 63h-64v2h64z" fill="#b8cbf4" mask="url(#a7)"/><path d="m784 223h64v64h-64z" fill="#fff" fill-opacity=".36"/><path d="m848 287v1h1v-1zm-1-64v64h2v-64zm1 63h-64v2h64z" fill="#96b1ee" mask="url(#a8)"/><path d="m912 287v1h1v-1zm-1-64v64h2v-64zm1 63h-64v2h64z" fill="#b8cbf4" mask="url(#a9)"/><path d="m976 287v1h1v-1zm-1-64v64h2v-64zm1 63h-64v2h64z" fill="#b8cbf4" mask="url(#ba)"/><path d="m1040 287v1h1v-1zm-1-64v64h2v-64zm1 63h-64v2h64z" fill="#b8cbf4" mask="url(#bb)"/><path d="m1104 287v1h1v-1zm-1-64v64h2v-64zm1 63h-64v2h64z" fill="#b8cbf4" mask="url(#bc)"/><path d="m1168 287v1h1v-1zm-1-64v64h2v-64zm1 63h-64v2h64z" fill="#b8cbf4" mask="url(#bd)"/><path d="m1232 287v1h1v-1zm-1-64v64h2v-64zm1 63h-64v2h64z" fill="#b8cbf4" mask="url(#be)"/><path d="m1296 287v1h1v-1zm-1-64v64h2v-64zm1 63h-64v2h64z" fill="#b8cbf4" mask="url(#bf)"/><path d="m1360 287v1h1v-1zm-1-64v64h2v-64zm1 63h-64v2h64z" fill="#b8cbf4" mask="url(#bg)"/><path d="m1424 287v1h1v-1zm-1-64v64h2v-64zm1 63h-64v2h64z" fill="#b8cbf4" mask="url(#bh)"/><path d="m1424 223h64v64h-64z" fill="#e8eefb"/><path d="m1488 287v1h1v-1zm-1-64v64h2v-64zm1 63h-64v2h64z" fill="#b8cbf4" mask="url(#bi)"/><path d="m-48 287h64v64h-64z" fill="#e8eefb"/><path d="m16 351v1h1v-1zm-1-64v64h2v-64zm1 63h-64v2h64z" fill="#b8cbf4" mask="url(#bj)"/><path d="m80 351v1h1v-1zm-1-64v64h2v-64zm1 63h-64v2h64z" fill="#b8cbf4" mask="url(#bk)"/><path d="m144 351v1h1v-1zm-1-64v64h2v-64zm1 63h-64v2h64z" fill="#b8cbf4" mask="url(#bl)"/><path d="m144 287h64v64h-64z" fill="#e8eefb"/><path d="m208 351v1h1v-1zm-1-64v64h2v-64zm1 63h-64v2h64z" fill="#b8cbf4" mask="url(#bm)"/><path d="m272 351v1h1v-1zm-1-64v64h2v-64zm1 63h-64v2h64z" fill="#b8cbf4" mask="url(#bn)"/><path d="m336 351v1h1v-1zm-1-64v64h2v-64zm1 63h-64v2h64z" fill="#b8cbf4" mask="url(#bo)"/><path d="m400 351v1h1v-1zm-1-64v64h2v-64zm1 63h-64v2h64z" fill="#b8cbf4" mask="url(#bp)"/><path d="m464 351v1h1v-1zm-1-64v64h2v-64zm1 63h-64v2h64z" fill="#b8cbf4" mask="url(#bq)"/><path d="m528 351v1h1v-1zm-1-64v64h2v-64zm1 63h-64v2h64z" fill="#b8cbf4" mask="url(#br)"/><path d="m592 351v1h1v-1zm-1-64v64h2v-64zm1 63h-64v2h64z" fill="#b8cbf4" mask="url(#bs)"/><path d="m656 351v1h1v-1zm-1-64v64h2v-64zm1 63h-64v2h64z" fill="#b8cbf4" mask="url(#bt)"/><path d="m720 351v1h1v-1zm-1-64v64h2v-64zm1 63h-64v2h64z" fill="#b8cbf4" mask="url(#bu)"/><path d="m784 351v1h1v-1zm-1-64v64h2v-64zm1 63h-64v2h64z" fill="#b8cbf4" mask="url(#bv)"/><path d="m848 351v1h1v-1zm-1-64v64h2v-64zm1 63h-64v2h64z" fill="#b8cbf4" mask="url(#bw)"/><path d="m912 351v1h1v-1zm-1-64v64h2v-64zm1 63h-64v2h64z" fill="#b8cbf4" mask="url(#bx)"/><path d="m976 351v1h1v-1zm-1-64v64h2v-64zm1 63h-64v2h64z" fill="#b8cbf4" mask="url(#by)"/><path d="m1040 351v1h1v-1zm-1-64v64h2v-64zm1 63h-64v2h64z" fill="#b8cbf4" mask="url(#bz)"/><path d="m1040 287h64v64h-64z" fill="#e8eefb"/><path d="m1104 351v1h1v-1zm-1-64v64h2v-64zm1 63h-64v2h64z" fill="#b8cbf4" mask="url(#bA)"/><path d="m1168 351v1h1v-1zm-1-64v64h2v-64zm1 63h-64v2h64z" fill="#b8cbf4" mask="url(#bB)"/><path d="m1232 351v1h1v-1zm-1-64v64h2v-64zm1 63h-64v2h64z" fill="#b8cbf4" mask="url(#bC)"/><path d="m1296 351v1h1v-1zm-1-64v64h2v-64zm1 63h-64v2h64z" fill="#b8cbf4" mask="url(#bD)"/><path d="m1360 351v1h1v-1zm-1-64v64h2v-64zm1 63h-64v2h64z" fill="#b8cbf4" mask="url(#bE)"/><path d="m1424 351v1h1v-1zm-1-64v64h2v-64zm1 63h-64v2h64z" fill="#b8cbf4" mask="url(#bF)"/><path d="m1488 351v1h1v-1zm-1-64v64h2v-64zm1 63h-64v2h64z" fill="#b8cbf4" mask="url(#bG)"/><path d="m16 415v1h1v-1zm-1-64v64h2v-64zm1 63h-64v2h64z" fill="#b8cbf4" mask="url(#bH)"/><path d="m80 415v1h1v-1zm-1-64v64h2v-64zm1 63h-64v2h64z" fill="#b8cbf4" mask="url(#bI)"/><path d="m144 415v1h1v-1zm-1-64v64h2v-64zm1 63h-64v2h64z" fill="#b8cbf4" mask="url(#bJ)"/><path d="m208 415v1h1v-1zm-1-64v64h2v-64zm1 63h-64v2h64z" fill="#b8cbf4" mask="url(#bK)"/><path d="m272 415v1h1v-1zm-1-64v64h2v-64zm1 63h-64v2h64z" fill="#b8cbf4" mask="url(#bL)"/><path d="m272 351h64v64h-64z" fill="#e8eefb"/><path d="m336 415v1h1v-1zm-1-64v64h2v-64zm1 63h-64v2h64z" fill="#b8cbf4" mask="url(#bM)"/><path d="m400 415v1h1v-1zm-1-64v64h2v-64zm1 63h-64v2h64z" fill="#b8cbf4" mask="url(#bN)"/><path d="m464 415v1h1v-1zm-1-64v64h2v-64zm1 63h-64v2h64z" fill="#b8cbf4" mask="url(#bO)"/><path d="m528 415v1h1v-1zm-1-64v64h2v-64zm1 63h-64v2h64z" fill="#b8cbf4" mask="url(#bP)"/><path d="m592 415v1h1v-1zm-1-64v64h2v-64zm1 63h-64v2h64z" fill="#b8cbf4" mask="url(#bQ)"/><path d="m592 351h64v64h-64z" fill="#e8eefb"/><path d="m656 415v1h1v-1zm-1-64v64h2v-64zm1 63h-64v2h64z" fill="#b8cbf4" mask="url(#bR)"/><path d="m720 415v1h1v-1zm-1-64v64h2v-64zm1 63h-64v2h64z" fill="#b8cbf4" mask="url(#bS)"/><path d="m784 415v1h1v-1zm-1-64v64h2v-64zm1 63h-64v2h64z" fill="#b8cbf4" mask="url(#bT)"/><path d="m848 415v1h1v-1zm-1-64v64h2v-64zm1 63h-64v2h64z" fill="#b8cbf4" mask="url(#bU)"/><path d="m912 415v1h1v-1zm-1-64v64h2v-64zm1 63h-64v2h64z" fill="#b8cbf4" mask="url(#bV)"/><path d="m976 415v1h1v-1zm-1-64v64h2v-64zm1 63h-64v2h64z" fill="#b8cbf4" mask="url(#bW)"/><path d="m1040 415v1h1v-1zm-1-64v64h2v-64zm1 63h-64v2h64z" fill="#b8cbf4" mask="url(#bX)"/><path d="m1104 415v1h1v-1zm-1-64v64h2v-64zm1 63h-64v2h64z" fill="#b8cbf4" mask="url(#bY)"/><path d="m1168 415v1h1v-1zm-1-64v64h2v-64zm1 63h-64v2h64z" fill="#b8cbf4" mask="url(#bZ)"/><path d="m1232 415v1h1v-1zm-1-64v64h2v-64zm1 63h-64v2h64z" fill="#b8cbf4" mask="url(#b0)"/><path d="m1296 415v1h1v-1zm-1-64v64h2v-64zm1 63h-64v2h64z" fill="#b8cbf4" mask="url(#b1)"/><path d="m1296 351h64v64h-64z" fill="#e8eefb"/><path d="m1360 415v1h1v-1zm-1-64v64h2v-64zm1 63h-64v2h64z" fill="#b8cbf4" mask="url(#b2)"/><path d="m1424 415v1h1v-1zm-1-64v64h2v-64zm1 63h-64v2h64z" fill="#b8cbf4" mask="url(#b3)"/><path d="m1488 415v1h1v-1zm-1-64v64h2v-64zm1 63h-64v2h64z" fill="#b8cbf4" mask="url(#b4)"/><path d="m16 479v1h1v-1zm-1-64v64h2v-64zm1 63h-64v2h64z" fill="#b8cbf4" mask="url(#b5)"/><path d="m80 479v1h1v-1zm-1-64v64h2v-64zm1 63h-64v2h64z" fill="#b8cbf4" mask="url(#b6)"/><path d="m144 479v1h1v-1zm-1-64v64h2v-64zm1 63h-64v2h64z" fill="#b8cbf4" mask="url(#b7)"/><path d="m208 479v1h1v-1zm-1-64v64h2v-64zm1 63h-64v2h64z" fill="#b8cbf4" mask="url(#b8)"/><path d="m272 479v1h1v-1zm-1-64v64h2v-64zm1 63h-64v2h64z" fill="#b8cbf4" mask="url(#b9)"/><path d="m336 479v1h1v-1zm-1-64v64h2v-64zm1 63h-64v2h64z" fill="#b8cbf4" mask="url(#ca)"/><path d="m400 479v1h1v-1zm-1-64v64h2v-64zm1 63h-64v2h64z" fill="#b8cbf4" mask="url(#cb)"/><path d="m464 479v1h1v-1zm-1-64v64h2v-64zm1 63h-64v2h64z" fill="#b8cbf4" mask="url(#cc)"/><path d="m464 415h64v64h-64z" fill="#e8eefb"/><path d="m528 479v1h1v-1zm-1-64v64h2v-64zm1 63h-64v2h64z" fill="#b8cbf4" mask="url(#cd)"/><path d="m592 479v1h1v-1zm-1-64v64h2v-64zm1 63h-64v2h64z" fill="#b8cbf4" mask="url(#ce)"/><path d="m656 479v1h1v-1zm-1-64v64h2v-64zm1 63h-64v2h64z" fill="#b8cbf4" mask="url(#cf)"/><path d="m720 479v1h1v-1zm-1-64v64h2v-64zm1 63h-64v2h64z" fill="#b8cbf4" mask="url(#cg)"/><path d="m784 479v1h1v-1zm-1-64v64h2v-64zm1 63h-64v2h64z" fill="#b8cbf4" mask="url(#ch)"/><path d="m848 479v1h1v-1zm-1-64v64h2v-64zm1 63h-64v2h64z" fill="#b8cbf4" mask="url(#ci)"/><path d="m848 415h64v64h-64z" fill="#e8eefb"/><path d="m912 479v1h1v-1zm-1-64v64h2v-64zm1 63h-64v2h64z" fill="#b8cbf4" mask="url(#cj)"/><path d="m976 479v1h1v-1zm-1-64v64h2v-64zm1 63h-64v2h64z" fill="#b8cbf4" mask="url(#ck)"/><path d="m1040 479v1h1v-1zm-1-64v64h2v-64zm1 63h-64v2h64z" fill="#b8cbf4" mask="url(#cl)"/><path d="m1040 415h64v64h-64z" fill="#e8eefb"/><path d="m1104 479v1h1v-1zm-1-64v64h2v-64zm1 63h-64v2h64z" fill="#b8cbf4" mask="url(#cm)"/><path d="m1168 479v1h1v-1zm-1-64v64h2v-64zm1 63h-64v2h64z" fill="#b8cbf4" mask="url(#cn)"/><path d="m1232 479v1h1v-1zm-1-64v64h2v-64zm1 63h-64v2h64z" fill="#b8cbf4" mask="url(#co)"/><path d="m1296 479v1h1v-1zm-1-64v64h2v-64zm1 63h-64v2h64z" fill="#b8cbf4" mask="url(#cp)"/><path d="m1360 479v1h1v-1zm-1-64v64h2v-64zm1 63h-64v2h64z" fill="#b8cbf4" mask="url(#cq)"/><path d="m1424 479v1h1v-1zm-1-64v64h2v-64zm1 63h-64v2h64z" fill="#b8cbf4" mask="url(#cr)"/><path d="m1488 479v1h1v-1zm-1-64v64h2v-64zm1 63h-64v2h64z" fill="#b8cbf4" mask="url(#cs)"/><path d="m16 543v1h1v-1zm-1-64v64h2v-64zm1 63h-64v2h64z" fill="#b8cbf4" mask="url(#ct)"/><path d="m80 543v1h1v-1zm-1-64v64h2v-64zm1 63h-64v2h64z" fill="#b8cbf4" mask="url(#cu)"/><path d="m144 543v1h1v-1zm-1-64v64h2v-64zm1 63h-64v2h64z" fill="#b8cbf4" mask="url(#cv)"/><path d="m208 543v1h1v-1zm-1-64v64h2v-64zm1 63h-64v2h64z" fill="#b8cbf4" mask="url(#cw)"/><path d="m208 479h64v64h-64z" fill="#e8eefb"/><path d="m272 543v1h1v-1zm-1-64v64h2v-64zm1 63h-64v2h64z" fill="#b8cbf4" mask="url(#cx)"/><path d="m336 543v1h1v-1zm-1-64v64h2v-64zm1 63h-64v2h64z" fill="#b8cbf4" mask="url(#cy)"/><path d="m400 543v1h1v-1zm-1-64v64h2v-64zm1 63h-64v2h64z" fill="#b8cbf4" mask="url(#cz)"/><path d="m464 543v1h1v-1zm-1-64v64h2v-64zm1 63h-64v2h64z" fill="#b8cbf4" mask="url(#cA)"/><path d="m528 543v1h1v-1zm-1-64v64h2v-64zm1 63h-64v2h64z" fill="#b8cbf4" mask="url(#cB)"/><path d="m592 543v1h1v-1zm-1-64v64h2v-64zm1 63h-64v2h64z" fill="#b8cbf4" mask="url(#cC)"/><path d="m656 543v1h1v-1zm-1-64v64h2v-64zm1 63h-64v2h64z" fill="#b8cbf4" mask="url(#cD)"/><path d="m656 479h64v64h-64z" fill="#e8eefb"/><path d="m720 543v1h1v-1zm-1-64v64h2v-64zm1 63h-64v2h64z" fill="#b8cbf4" mask="url(#cE)"/><path d="m784 543v1h1v-1zm-1-64v64h2v-64zm1 63h-64v2h64z" fill="#b8cbf4" mask="url(#cF)"/><path d="m848 543v1h1v-1zm-1-64v64h2v-64zm1 63h-64v2h64z" fill="#b8cbf4" mask="url(#cG)"/><path d="m912 543v1h1v-1zm-1-64v64h2v-64zm1 63h-64v2h64z" fill="#b8cbf4" mask="url(#cH)"/><path d="m976 543v1h1v-1zm-1-64v64h2v-64zm1 63h-64v2h64z" fill="#b8cbf4" mask="url(#cI)"/><path d="m1040 543v1h1v-1zm-1-64v64h2v-64zm1 63h-64v2h64z" fill="#b8cbf4" mask="url(#cJ)"/><path d="m1104 543v1h1v-1zm-1-64v64h2v-64zm1 63h-64v2h64z" fill="#b8cbf4" mask="url(#cK)"/><path d="m1168 543v1h1v-1zm-1-64v64h2v-64zm1 63h-64v2h64z" fill="#b8cbf4" mask="url(#cL)"/><path d="m1232 543v1h1v-1zm-1-64v64h2v-64zm1 63h-64v2h64z" fill="#b8cbf4" mask="url(#cM)"/><path d="m1232 479h64v64h-64z" fill="#e8eefb"/><path d="m1296 543v1h1v-1zm-1-64v64h2v-64zm1 63h-64v2h64z" fill="#b8cbf4" mask="url(#cN)"/><path d="m1360 543v1h1v-1zm-1-64v64h2v-64zm1 63h-64v2h64z" fill="#b8cbf4" mask="url(#cO)"/><path d="m1424 543v1h1v-1zm-1-64v64h2v-64zm1 63h-64v2h64z" fill="#b8cbf4" mask="url(#cP)"/><path d="m1488 543v1h1v-1zm-1-64v64h2v-64zm1 63h-64v2h64z" fill="#b8cbf4" mask="url(#cQ)"/></g><path d="m-239.5-864.5h1919v1407h-1919z" stroke="#b8cbf4"/></g></svg>