<svg width="154" height="30" viewBox="0 0 154 30" fill="none" xmlns="http://www.w3.org/2000/svg">
<path d="M11.2 29.56C9.152 29.56 7.34933 29.1547 5.792 28.344C4.256 27.5547 3.05067 26.4453 2.176 25.016C1.32267 23.5867 0.896 21.9333 0.896 20.056C0.896 18.9253 1.088 17.7413 1.472 16.504C1.856 15.2453 2.47467 14.072 3.328 12.984C4.18133 11.896 5.30133 11.0107 6.688 10.328C8.096 9.64533 9.80267 9.304 11.808 9.304C13.2587 9.304 14.4747 9.464 15.456 9.784C16.4587 10.104 17.2693 10.52 17.888 11.032C18.528 11.544 19.008 12.088 19.328 12.664C19.6693 13.24 19.8933 13.7947 20 14.328C20.128 14.84 20.192 15.2667 20.192 15.608C20.192 17.6773 19.3173 19.2773 17.568 20.408C15.84 21.5173 13.3867 22.072 10.208 22.072C9.48267 22.072 8.78933 22.04 8.128 21.976C7.488 21.912 6.89067 21.8373 6.336 21.752C6.74133 22.8187 7.41333 23.608 8.352 24.12C9.29067 24.6107 10.2613 24.856 11.264 24.856C12.7147 24.856 13.9947 24.6 15.104 24.088C16.2133 23.5547 17.2587 22.744 18.24 21.656L21.088 25.752C20.4053 26.3067 19.6373 26.8827 18.784 27.48C17.952 28.0773 16.928 28.568 15.712 28.952C14.496 29.3573 12.992 29.56 11.2 29.56ZM11.904 14.104C10.6453 14.104 9.536 14.424 8.576 15.064C7.616 15.704 6.912 16.5467 6.464 17.592C6.99733 17.6773 7.52 17.752 8.032 17.816C8.56533 17.8587 9.088 17.88 9.6 17.88C10.0693 17.88 10.6027 17.8373 11.2 17.752C11.8187 17.6667 12.416 17.5387 12.992 17.368C13.5893 17.1973 14.08 16.984 14.464 16.728C14.848 16.4507 15.04 16.1307 15.04 15.768C15.04 15.5973 14.9547 15.384 14.784 15.128C14.6133 14.872 14.304 14.6373 13.856 14.424C13.408 14.2107 12.7573 14.104 11.904 14.104ZM36.1753 29.56C33.5726 29.56 31.3113 28.984 29.3913 27.832C27.4713 26.7013 25.9886 25.1013 24.9433 23.032C23.8979 20.9627 23.3753 18.52 23.3753 15.704C23.3753 14.6373 23.5033 13.4533 23.7593 12.152C24.0366 10.8293 24.4739 9.51733 25.0713 8.216C25.6686 6.89333 26.4686 5.688 27.4713 4.6C28.4739 3.512 29.7006 2.63733 31.1513 1.976C32.6019 1.29333 34.3086 0.952 36.2713 0.952C37.9566 0.952 39.4286 1.16533 40.6873 1.592C41.9459 1.99733 43.0339 2.52 43.9513 3.16C44.8686 3.77867 45.6259 4.42933 46.2233 5.112C46.8419 5.79467 47.3326 6.424 47.6953 7C48.0579 7.55467 48.3246 7.96 48.4953 8.216L43.8553 11.768C43.3859 10.8933 42.8313 10.04 42.1913 9.208C41.5513 8.35467 40.7619 7.65067 39.8233 7.096C38.8846 6.54133 37.7219 6.264 36.3353 6.264C34.9059 6.264 33.7219 6.584 32.7833 7.224C31.8446 7.864 31.0979 8.67467 30.5433 9.656C30.0099 10.6373 29.6366 11.6827 29.4233 12.792C29.2099 13.88 29.1033 14.8933 29.1033 15.832C29.1033 16.8347 29.2099 17.8267 29.4233 18.808C29.6366 19.7893 29.9993 20.6853 30.5113 21.496C31.0446 22.3067 31.7486 22.9573 32.6233 23.448C33.5193 23.9173 34.6393 24.152 35.9833 24.152C37.4766 24.152 38.6926 23.8853 39.6313 23.352C40.5913 22.8187 41.3913 22.072 42.0312 21.112C42.6713 20.1307 43.2686 18.9893 43.8233 17.688L49.0713 20.056C48.1326 21.9973 47.0766 23.6827 45.9033 25.112C44.7299 26.5413 43.3539 27.64 41.7753 28.408C40.1966 29.176 38.3299 29.56 36.1753 29.56ZM61.6025 29.624C59.8958 29.624 58.4025 29.3467 57.1225 28.792C55.8638 28.2373 54.8185 27.48 53.9865 26.52C53.1545 25.5387 52.5358 24.4187 52.1305 23.16C51.7252 21.9013 51.5225 20.5787 51.5225 19.192C51.5225 17.784 51.7678 16.4827 52.2585 15.288C52.7705 14.072 53.4638 13.016 54.3385 12.12C55.2345 11.224 56.2798 10.5307 57.4745 10.04C58.6692 9.528 59.9705 9.272 61.3785 9.272C62.8505 9.272 64.2158 9.528 65.4745 10.04C66.7332 10.552 67.8318 11.2667 68.7705 12.184C69.7092 13.1013 70.4345 14.1787 70.9465 15.416C71.4798 16.6533 71.7465 17.9973 71.7465 19.448C71.7465 22.6693 70.8612 25.176 69.0905 26.968C67.3198 28.7387 64.8238 29.624 61.6025 29.624ZM61.5705 24.44C63.1278 24.44 64.3118 24.0027 65.1225 23.128C65.9545 22.2533 66.3705 20.9947 66.3705 19.352C66.3705 17.88 65.9225 16.696 65.0265 15.8C64.1305 14.904 62.9572 14.456 61.5065 14.456C60.6318 14.456 59.8318 14.6907 59.1065 15.16C58.3812 15.608 57.7945 16.216 57.3465 16.984C56.9198 17.7307 56.7065 18.5627 56.7065 19.48C56.7065 20.2907 56.8665 21.08 57.1865 21.848C57.5278 22.616 58.0612 23.2453 58.7865 23.736C59.5118 24.2053 60.4398 24.44 61.5705 24.44ZM121.757 29.656C120.306 29.656 118.962 29.4853 117.725 29.144C116.487 28.8027 115.367 28.3653 114.365 27.832C113.362 27.2987 112.466 26.7333 111.677 26.136L114.557 21.496C115.453 22.328 116.317 22.968 117.149 23.416C117.981 23.864 118.845 24.1733 119.741 24.344C120.658 24.5147 121.65 24.6 122.717 24.6C123.634 24.6 124.37 24.4827 124.925 24.248C125.479 23.992 125.757 23.672 125.757 23.288C125.757 22.968 125.49 22.7227 124.957 22.552C124.423 22.36 123.741 22.2 122.909 22.072C122.077 21.9227 121.202 21.7413 120.285 21.528C118.983 21.1867 117.767 20.792 116.637 20.344C115.506 19.896 114.589 19.288 113.885 18.52C113.202 17.752 112.861 16.728 112.861 15.448C112.861 14.424 113.106 13.528 113.597 12.76C114.087 11.9707 114.738 11.32 115.549 10.808C116.381 10.2747 117.319 9.88 118.365 9.624C119.41 9.368 120.487 9.24 121.597 9.24C123.517 9.24 125.17 9.47467 126.557 9.944C127.965 10.392 129.309 10.9893 130.589 11.736L127.677 16.152C127.037 15.704 126.301 15.32 125.469 15C124.658 14.6587 123.837 14.4027 123.005 14.232C122.194 14.04 121.437 13.944 120.733 13.944C119.965 13.944 119.357 14.0613 118.909 14.296C118.482 14.5307 118.269 14.8613 118.269 15.288C118.269 15.544 118.535 15.7893 119.069 16.024C119.623 16.2373 120.669 16.5253 122.205 16.888C123.122 17.1013 124.093 17.3253 125.117 17.56C126.141 17.7733 127.101 18.0827 127.997 18.488C128.914 18.872 129.65 19.4373 130.205 20.184C130.781 20.9093 131.069 21.88 131.069 23.096C131.069 25.144 130.247 26.744 128.605 27.896C126.962 29.0693 124.679 29.656 121.757 29.656ZM143.2 29.56C141.152 29.56 139.349 29.1547 137.792 28.344C136.256 27.5547 135.051 26.4453 134.176 25.016C133.323 23.5867 132.896 21.9333 132.896 20.056C132.896 18.9253 133.088 17.7413 133.472 16.504C133.856 15.2453 134.475 14.072 135.328 12.984C136.181 11.896 137.301 11.0107 138.688 10.328C140.096 9.64533 141.803 9.304 143.808 9.304C145.259 9.304 146.475 9.464 147.456 9.784C148.459 10.104 149.269 10.52 149.888 11.032C150.528 11.544 151.008 12.088 151.328 12.664C151.669 13.24 151.893 13.7947 152 14.328C152.128 14.84 152.192 15.2667 152.192 15.608C152.192 17.6773 151.317 19.2773 149.568 20.408C147.84 21.5173 145.387 22.072 142.208 22.072C141.483 22.072 140.789 22.04 140.128 21.976C139.488 21.912 138.891 21.8373 138.336 21.752C138.741 22.8187 139.413 23.608 140.352 24.12C141.291 24.6107 142.261 24.856 143.264 24.856C144.715 24.856 145.995 24.6 147.104 24.088C148.213 23.5547 149.259 22.744 150.24 21.656L153.088 25.752C152.405 26.3067 151.637 26.8827 150.784 27.48C149.952 28.0773 148.928 28.568 147.712 28.952C146.496 29.3573 144.992 29.56 143.2 29.56ZM143.904 14.104C142.645 14.104 141.536 14.424 140.576 15.064C139.616 15.704 138.912 16.5467 138.464 17.592C138.997 17.6773 139.52 17.752 140.032 17.816C140.565 17.8587 141.088 17.88 141.6 17.88C142.069 17.88 142.603 17.8373 143.2 17.752C143.819 17.6667 144.416 17.5387 144.992 17.368C145.589 17.1973 146.08 16.984 146.464 16.728C146.848 16.4507 147.04 16.1307 147.04 15.768C147.04 15.5973 146.955 15.384 146.784 15.128C146.613 14.872 146.304 14.6373 145.856 14.424C145.408 14.2107 144.757 14.104 143.904 14.104Z" fill="#392C7D"/>
<path d="M81.3588 29.624C79.9934 29.624 78.8628 29.3787 77.9668 28.888C77.0921 28.4187 76.3881 27.768 75.8548 26.936C75.3428 26.104 74.9588 25.176 74.7028 24.152C74.4681 23.1067 74.3081 22.0293 74.2228 20.92C74.1588 19.7893 74.1268 18.7013 74.1268 17.656C74.1268 16.4613 74.1588 15.2453 74.2228 14.008C74.3081 12.7707 74.3934 11.416 74.4788 9.944L80.3348 9.592C80.2708 10.04 80.1748 10.712 80.0468 11.608C79.9188 12.504 79.8014 13.528 79.6948 14.68C79.5881 15.832 79.5348 17.0373 79.5348 18.296C79.5348 20.3653 79.7161 21.9013 80.0788 22.904C80.4414 23.8853 80.9854 24.376 81.7108 24.376C83.1614 24.376 84.2281 23.32 84.9108 21.208C85.5934 19.096 85.9348 15.7573 85.9348 11.192V9.72L88.6548 9.656L91.9508 9.592C91.6521 11.5973 91.4281 13.4427 91.2788 15.128C91.1294 16.8133 91.0334 18.232 90.9908 19.384C90.9481 20.5147 90.9268 21.272 90.9268 21.656C90.9268 22.6373 91.0121 23.3413 91.1828 23.768C91.3534 24.1733 91.6521 24.376 92.0788 24.376C92.2921 24.376 92.5268 24.3333 92.7828 24.248C93.0388 24.1627 93.3374 24.0133 93.6788 23.8L93.4548 29.304C92.6441 29.432 91.9401 29.496 91.3428 29.496C90.3188 29.496 89.4761 29.304 88.8148 28.92C88.1748 28.536 87.6628 28.024 87.2788 27.384C86.6174 28.088 85.7961 28.632 84.8148 29.016C83.8548 29.4213 82.7028 29.624 81.3588 29.624ZM96.1893 29.496C96.2746 27.7253 96.3386 25.9547 96.3813 24.184C96.4239 22.4133 96.4453 20.664 96.4453 18.936C96.4239 17.3573 96.3919 15.8 96.3493 14.264C96.3279 12.7067 96.2746 11.2027 96.1893 9.752L101.565 9.592C101.587 10.3813 101.619 11.192 101.661 12.024C102.344 11.1707 103.133 10.488 104.029 9.976C104.947 9.44267 105.992 9.176 107.165 9.176C107.613 9.176 108.189 9.24 108.893 9.368C109.597 9.496 110.312 9.74133 111.037 10.104L110.429 15.512C109.896 15.192 109.32 14.968 108.701 14.84C108.104 14.6907 107.603 14.616 107.197 14.616C105.832 14.616 104.669 15.2347 103.709 16.472C102.771 17.688 102.131 19.384 101.789 21.56C101.789 23.0533 101.768 24.4827 101.725 25.848C101.704 27.192 101.651 28.408 101.565 29.496H96.1893Z" fill="#FF4667"/>
</svg>
